<?xml version="1.0" standalone="no"?>
<!DOCTYPE svg PUBLIC "-//W3C//DTD SVG 20010904//EN"
 "http://www.w3.org/TR/2001/REC-SVG-20010904/DTD/svg10.dtd">
<svg version="1.0" xmlns="http://www.w3.org/2000/svg"
 width="180.000000pt" height="180.000000pt" viewBox="0 0 180.000000 180.000000"
 preserveAspectRatio="xMidYMid meet">
<metadata>
Created by potrace 1.14, written by Peter Selinger 2001-2017
</metadata>
<g transform="translate(0.000000,180.000000) scale(0.100000,-0.100000)"
fill="#000000" stroke="none">
<path d="M470 1555 l-305 -113 -3 -516 -2 -516 22 -10 c50 -22 563 -207 567
-204 4 4 -28 197 -35 203 -2 2 -23 -2 -46 -10 -32 -10 -42 -11 -46 -1 -2 7
-13 12 -24 12 -15 0 -18 5 -14 17 4 9 30 124 58 255 l52 239 -22 68 c-20 61
-26 69 -52 75 -18 3 -34 15 -40 28 -14 33 -30 57 -74 111 -47 58 -45 66 50
151 35 31 64 64 64 71 0 23 45 47 73 40 38 -10 67 3 67 29 0 32 30 56 72 56
34 0 68 -24 68 -48 0 -7 18 -9 55 -5 33 4 55 2 55 -4 0 -12 -51 -28 -143 -44
-65 -12 -67 -14 -49 -28 11 -9 27 -30 36 -48 9 -19 25 -33 38 -35 15 -2 22 -9
20 -19 -1 -10 6 -19 19 -22 11 -3 23 -15 26 -26 3 -12 12 -21 19 -21 8 0 14
-6 14 -14 0 -7 10 -20 22 -28 20 -13 21 -17 9 -46 -8 -18 -18 -32 -24 -32 -6
0 -1 -7 11 -16 12 -8 22 -20 22 -25 0 -13 -37 -61 -44 -57 -2 2 -8 0 -12 -4
-9 -10 132 -155 167 -170 15 -7 26 -15 23 -19 -2 -4 0 -10 6 -14 15 -9 12 -35
-4 -35 -8 0 -29 16 -48 36 -18 19 -58 51 -88 70 -30 19 -75 54 -100 79 l-45
45 -12 -28 c-34 -77 -32 -81 70 -207 52 -64 110 -144 127 -178 18 -34 40 -71
49 -81 12 -14 13 -20 4 -23 -7 -3 -13 -11 -13 -18 0 -16 -22 -25 -59 -25 -34
0 -91 -19 -91 -30 0 -22 97 -135 120 -140 22 -5 25 -11 22 -46 -2 -21 3 -46
10 -56 12 -15 34 -8 250 70 l238 87 0 520 0 520 -408 148 c-224 81 -409 147
-412 146 -3 0 -142 -52 -310 -114z"/>
<path d="M672 1407 c-12 -7 -34 -31 -49 -52 -14 -22 -39 -55 -56 -72 -30 -32
-30 -33 -11 -54 22 -25 39 -34 78 -43 23 -6 27 -4 22 9 -3 9 0 25 7 36 10 16
9 21 -3 29 -13 9 -13 12 3 21 9 5 17 22 17 36 0 16 14 39 39 64 l39 39 -32 0
c-17 -1 -41 -6 -54 -13z"/>
<path d="M803 394 c-8 -4 -8 -15 -1 -41 6 -21 7 -68 3 -109 l-6 -72 68 -26
c88 -34 162 -34 221 0 5 2 -69 108 -96 138 -45 47 -139 116 -159 115 -10 0
-23 -3 -30 -5z"/>
</g>
</svg>
