<?xml version="1.0" standalone="no"?>
<!DOCTYPE svg PUBLIC "-//W3C//DTD SVG 20010904//EN"
 "http://www.w3.org/TR/2001/REC-SVG-20010904/DTD/svg10.dtd">
<svg version="1.0" xmlns="http://www.w3.org/2000/svg"
 width="621.000000pt" height="621.000000pt" viewBox="0 0 621.000000 621.000000"
 preserveAspectRatio="xMidYMid meet">
<metadata>
Created by potrace 1.14, written by Peter Selinger 2001-2017
</metadata>
<g transform="translate(0.000000,621.000000) scale(0.100000,-0.100000)"
fill="#000000" stroke="none">
<path d="M2809 6136 c-5 -6 -53 -11 -189 -21 -78 -5 -83 -6 -218 -31 -105 -19
-300 -69 -372 -95 -30 -11 -62 -22 -71 -24 -42 -9 -373 -141 -439 -175 -140
-71 -165 -86 -329 -204 -139 -99 -189 -143 -346 -301 -225 -224 -385 -443
-514 -701 -56 -112 -160 -384 -175 -459 -1 -5 -10 -37 -20 -70 -30 -101 -71
-294 -80 -380 -3 -33 -8 -76 -11 -95 -6 -43 -12 -118 -22 -258 -15 -211 -5
-585 21 -742 10 -61 14 -86 22 -145 3 -27 8 -54 11 -58 2 -4 7 -24 9 -45 3
-20 7 -45 10 -54 3 -10 7 -30 10 -45 3 -16 10 -46 16 -68 6 -22 11 -44 12 -50
15 -67 95 -305 107 -320 5 -5 9 -16 9 -24 0 -20 152 -328 197 -399 49 -78 135
-206 142 -212 4 -3 19 -21 35 -40 173 -214 297 -333 546 -523 120 -91 343
-223 493 -290 191 -86 515 -186 687 -213 19 -3 73 -12 120 -20 67 -11 202 -14
640 -14 305 0 573 5 595 10 22 5 52 11 68 14 15 2 35 7 45 10 9 3 28 7 42 10
29 6 190 47 300 77 530 145 976 442 1365 910 138 166 293 430 400 684 39 92
112 321 130 405 2 8 12 56 23 105 11 50 23 115 27 145 4 30 8 63 10 73 4 19
12 114 20 222 3 39 8 86 10 105 4 27 15 214 17 285 0 9 -7 117 -17 250 -6 89
-21 218 -29 262 -3 12 -7 48 -11 80 -3 32 -8 65 -10 73 -2 8 -7 31 -10 50 -3
19 -15 73 -26 120 -11 47 -24 101 -29 120 -23 98 -66 223 -121 352 -88 206
-123 274 -208 403 -25 39 -48 75 -50 80 -2 6 -7 12 -10 15 -3 3 -26 32 -50 65
-79 107 -148 182 -358 385 -119 117 -176 165 -273 232 -165 115 -549 308 -740
373 -71 24 -269 77 -335 89 -152 29 -266 46 -332 51 -43 4 -94 9 -113 12 -52
7 -624 16 -631 9z m276 -160 c66 -3 136 -8 155 -11 57 -9 153 -25 179 -30 50
-10 227 -56 246 -64 11 -5 47 -19 80 -32 290 -109 570 -315 748 -550 64 -85
157 -252 198 -358 23 -58 42 -110 44 -116 1 -5 5 -17 8 -25 3 -8 8 -28 12 -45
3 -16 12 -59 19 -95 23 -109 30 -180 29 -310 -1 -160 -11 -231 -67 -440 -29
-109 -145 -359 -223 -482 -183 -286 -507 -623 -843 -879 -47 -35 -87 -66 -90
-69 -3 -3 -23 -18 -45 -35 -22 -16 -42 -31 -45 -35 -3 -3 -31 -25 -63 -48
-144 -108 -226 -222 -235 -328 -6 -70 2 -96 41 -140 82 -95 262 -113 436 -44
94 37 298 175 381 259 93 93 196 246 261 389 74 161 109 310 121 517 1 29 14
58 47 105 25 36 49 67 53 68 5 2 8 8 8 14 0 5 8 20 17 33 10 12 25 33 33 45 8
12 20 28 25 34 6 6 21 28 35 48 14 21 28 38 31 38 4 0 9 -17 12 -37 5 -42 0
-481 -7 -528 -11 -81 -51 -249 -77 -330 -32 -96 -165 -375 -180 -375 -5 0 -9
-5 -9 -11 0 -27 -176 -231 -261 -304 -240 -204 -603 -326 -864 -290 -215 29
-411 184 -440 345 -13 71 -7 149 17 215 25 71 81 175 127 235 66 88 126 144
331 309 58 47 107 88 110 91 3 3 75 64 160 135 294 244 459 430 648 730 6 11
16 29 21 40 5 11 30 64 55 117 25 53 46 99 46 102 0 2 5 17 12 33 6 15 12 30
13 33 27 90 30 100 39 150 18 98 21 136 21 260 0 123 -10 253 -20 270 -2 4 -7
22 -10 41 -19 111 -85 265 -168 392 -180 276 -420 464 -737 576 -89 31 -221
67 -280 75 -19 3 -45 7 -57 10 -91 20 -424 27 -553 12 -108 -12 -205 -29 -300
-51 -78 -18 -334 -105 -445 -151 -214 -87 -560 -325 -735 -503 -212 -216 -364
-443 -499 -742 -50 -112 -152 -457 -165 -560 -3 -19 -5 -34 -6 -34 -7 0 -19
-112 -27 -250 -14 -229 -6 -725 12 -755 3 -4 11 -58 20 -135 1 -11 5 -31 8
-45 4 -14 16 -63 27 -110 29 -117 28 -115 30 -115 1 0 3 -7 5 -15 14 -71 101
-312 150 -415 102 -214 262 -432 470 -640 71 -71 85 -83 185 -165 71 -57 78
-65 158 -179 115 -163 310 -347 490 -460 29 -19 51 -36 48 -39 -9 -8 -327 118
-448 179 -330 165 -625 407 -858 704 -17 22 -38 48 -46 59 -49 58 -154 228
-208 336 -90 179 -223 546 -242 670 -3 19 -8 38 -10 42 -9 15 -39 187 -49 288
-4 36 -9 76 -11 90 -30 233 -22 615 17 900 6 41 12 86 14 100 7 58 38 222 50
263 14 49 77 243 84 262 5 11 28 70 51 130 168 432 439 782 847 1093 45 34 84
62 86 62 2 0 42 25 88 55 73 48 248 139 389 203 111 50 429 144 562 166 18 3
42 7 53 10 28 5 153 25 200 31 22 3 101 8 175 12 74 3 137 7 138 8 2 2 9 2 15
0 7 -2 66 -6 132 -9z m1131 -160 c162 -55 377 -157 498 -237 32 -22 60 -39 63
-39 4 0 106 -68 143 -97 159 -120 400 -356 508 -498 4 -5 29 -38 55 -72 178
-233 371 -658 432 -953 13 -60 34 -171 39 -200 3 -19 8 -46 11 -60 3 -14 7
-49 11 -78 3 -29 7 -63 10 -75 7 -35 17 -289 18 -452 0 -129 -8 -285 -18 -343
-2 -9 -7 -48 -11 -87 -8 -82 -32 -216 -56 -325 -6 -25 -12 -53 -14 -63 -2 -9
-11 -45 -20 -80 -9 -34 -19 -71 -21 -82 -7 -26 -10 -36 -16 -55 -3 -8 -18 -53
-33 -99 -15 -46 -34 -95 -41 -110 -8 -14 -14 -30 -14 -34 0 -10 -89 -188 -118
-237 -12 -19 -29 -48 -37 -63 -21 -36 -101 -153 -140 -202 -135 -171 -166
-207 -280 -320 -106 -105 -129 -125 -210 -186 -180 -136 -390 -260 -585 -347
-167 -74 -503 -162 -775 -203 -153 -23 -226 -29 -355 -29 -116 0 -284 7 -315
13 -28 6 -119 21 -202 33 -51 7 -410 132 -493 171 -204 97 -448 295 -571 463
-127 174 -248 447 -275 620 -3 19 -13 67 -21 105 -30 134 -25 373 11 545 19
94 70 245 117 348 16 35 29 68 29 73 0 5 5 9 10 9 6 0 10 7 10 15 0 9 11 33
25 55 14 22 25 42 25 44 0 11 129 199 185 268 196 244 384 430 620 611 5 4 21
17 35 28 14 12 41 33 60 47 180 135 372 308 423 381 76 110 62 231 -35 305
-42 31 -127 54 -182 49 -23 -2 -48 -4 -56 -5 -40 0 -182 -45 -244 -75 -129
-65 -168 -94 -296 -223 -175 -176 -279 -361 -344 -610 -25 -96 -31 -131 -41
-254 -8 -84 -13 -99 -59 -159 -20 -26 -36 -51 -36 -56 0 -5 -3 -11 -8 -13 -4
-1 -40 -49 -81 -106 -40 -57 -74 -102 -76 -100 -8 9 -16 138 -16 262 1 159 4
198 27 376 24 181 122 438 237 625 92 148 259 326 389 413 67 45 235 135 263
140 6 1 30 9 55 17 115 38 223 53 350 50 134 -4 172 -8 204 -23 12 -6 41 -19
66 -30 55 -24 136 -85 177 -132 70 -81 100 -206 77 -325 -10 -53 -60 -162
-109 -236 -70 -104 -151 -183 -410 -395 -126 -103 -234 -193 -240 -199 -5 -6
-39 -36 -75 -65 -133 -111 -312 -300 -411 -435 -24 -33 -47 -61 -51 -63 -5 -2
-8 -10 -8 -18 0 -8 -4 -14 -8 -14 -5 0 -15 -12 -23 -27 -8 -15 -32 -57 -53
-93 -104 -173 -190 -415 -212 -595 -27 -226 26 -517 133 -729 36 -72 108 -188
147 -235 86 -105 269 -262 386 -330 93 -53 268 -134 315 -146 6 -1 17 -5 25
-8 22 -9 136 -35 206 -47 110 -19 217 -25 424 -25 184 1 219 4 340 29 259 53
492 118 580 161 14 7 39 19 55 26 63 29 225 125 335 200 249 169 389 300 550
514 84 113 115 158 177 261 122 202 250 557 289 803 3 18 7 43 10 55 2 11 6
32 8 46 19 101 39 394 39 580 0 117 -9 260 -18 311 -2 9 -6 40 -10 70 -3 30
-10 77 -15 104 -5 28 -12 66 -15 85 -16 100 -65 270 -125 435 -34 95 -141 312
-203 412 -31 50 -89 133 -129 185 -84 109 -315 343 -408 413 -84 63 -94 75
-164 178 -106 158 -292 337 -456 439 -38 23 -69 46 -70 51 0 10 -6 11 106 -27z
m-1228 -271 c63 -4 126 -9 140 -12 15 -3 36 -6 47 -7 102 -14 295 -73 401
-122 348 -164 603 -459 688 -797 25 -98 27 -120 31 -252 5 -205 -32 -375 -122
-564 -39 -81 -128 -230 -168 -280 -8 -9 -38 -50 -69 -91 -84 -115 -86 -118
-162 -194 -77 -77 -106 -104 -204 -186 -36 -30 -67 -57 -70 -60 -5 -5 -43 -37
-124 -105 -26 -22 -58 -49 -70 -60 -12 -11 -42 -36 -66 -55 -81 -65 -124 -105
-231 -210 -147 -144 -228 -268 -281 -426 -33 -100 -32 -273 1 -359 99 -250
353 -410 646 -405 142 2 204 8 277 25 35 9 74 18 88 21 42 9 232 86 290 117
172 94 302 204 445 378 11 13 31 40 45 59 13 19 27 37 30 40 27 25 147 258
183 355 21 56 56 167 62 195 1 3 4 19 8 35 13 52 31 146 41 210 31 191 22 541
-19 730 -18 86 -17 101 20 196 20 52 38 99 39 104 2 6 8 30 15 55 16 55 16 54
26 113 4 26 11 50 16 53 21 12 113 -245 148 -411 26 -126 30 -148 37 -215 3
-30 10 -72 14 -93 8 -39 5 -463 -4 -507 -2 -14 -7 -47 -10 -75 -5 -44 -26
-173 -40 -244 -3 -12 -15 -55 -27 -95 -98 -325 -245 -573 -479 -806 -95 -96
-231 -210 -249 -210 -5 0 -11 -4 -13 -9 -5 -15 -216 -130 -312 -171 -152 -64
-314 -111 -431 -124 -27 -3 -69 -8 -93 -11 -60 -7 -186 -7 -257 0 -33 3 -67 6
-75 6 -43 3 -154 33 -225 61 -358 139 -565 413 -568 753 -1 95 10 167 38 252
50 148 156 325 281 467 99 112 173 181 374 346 77 64 167 139 206 175 13 11
47 40 76 65 59 50 233 222 291 287 64 72 167 224 209 308 94 185 129 328 124
505 -4 125 -13 176 -55 295 -15 41 -95 195 -110 212 -9 10 -24 28 -33 41 -16
23 -111 123 -145 152 -40 34 -149 102 -211 131 -70 32 -217 83 -268 93 -29 5
-49 9 -114 22 -51 10 -394 13 -444 3 -23 -4 -60 -10 -81 -13 -22 -3 -47 -7
-55 -9 -8 -2 -28 -7 -45 -11 -95 -24 -314 -104 -402 -147 -239 -118 -473 -302
-651 -514 -241 -287 -401 -661 -447 -1045 -4 -30 -8 -66 -10 -80 -17 -122 -23
-384 -12 -565 7 -110 10 -132 28 -235 13 -77 14 -83 40 -190 13 -52 23 -97 24
-100 2 -13 30 -93 58 -170 26 -71 78 -180 154 -323 9 -16 17 -57 19 -90 4 -90
21 -236 29 -267 2 -8 7 -28 10 -45 3 -16 11 -56 19 -87 7 -32 10 -58 7 -58
-11 0 -131 135 -190 212 -141 186 -267 417 -336 618 -38 110 -89 297 -99 365
-4 22 -11 65 -16 95 -34 190 -47 528 -27 710 4 36 9 88 12 115 2 28 7 66 10
85 7 47 14 98 19 140 13 110 22 152 60 300 25 98 139 367 180 425 11 17 20 31
18 33 -9 8 111 188 202 302 68 86 306 329 321 330 6 0 17 9 25 20 8 11 20 20
27 20 7 0 13 4 13 8 0 11 168 120 250 163 36 19 67 37 68 42 2 4 8 7 14 7 5 0
44 16 86 36 43 20 77 35 77 33 1 -2 12 3 26 12 34 23 310 112 389 126 14 2 41
8 60 13 19 5 55 12 80 15 24 4 48 8 51 11 4 2 56 7 115 10 60 4 110 7 111 8 2
1 17 1 35 0 18 -1 84 -5 146 -9z m-78 -450 c105 -6 126 -8 185 -24 22 -5 58
-14 80 -20 49 -12 167 -61 217 -89 201 -114 313 -250 384 -463 25 -74 28 -99
28 -214 1 -138 -3 -163 -36 -265 -18 -57 -98 -227 -120 -255 -4 -5 -36 -48
-70 -95 -34 -47 -118 -141 -187 -211 -124 -123 -172 -166 -302 -271 -161 -130
-159 -128 -245 -207 -207 -188 -327 -320 -417 -456 -26 -38 -50 -74 -55 -80
-4 -5 -29 -53 -54 -105 -119 -243 -141 -486 -66 -720 57 -177 199 -379 330
-468 13 -9 25 -19 28 -22 8 -9 118 -74 175 -103 48 -24 187 -74 230 -83 11 -2
31 -7 45 -9 119 -26 588 -26 629 -1 3 2 23 7 43 10 96 15 449 152 499 193 8 7
20 13 25 13 15 0 220 138 290 194 162 131 308 293 424 471 47 74 149 269 177
340 35 92 55 155 78 244 28 106 29 112 40 181 3 25 9 59 11 75 3 17 7 50 9 75
2 25 7 86 12 135 9 109 10 396 0 485 -10 97 -15 141 -22 180 -4 19 -8 44 -9
55 -6 43 -58 243 -77 300 -40 114 -110 272 -158 356 -51 88 -58 117 -66 235
-6 111 -32 244 -72 377 -23 76 149 -122 298 -343 35 -53 69 -106 76 -117 42
-74 93 -178 117 -238 16 -38 32 -79 37 -90 12 -28 58 -192 65 -229 2 -17 9
-47 14 -66 7 -28 28 -128 45 -210 35 -179 42 -715 10 -890 -2 -14 -6 -43 -9
-65 -3 -22 -7 -49 -9 -60 -4 -19 -13 -65 -24 -125 -15 -88 -66 -257 -113 -375
-38 -97 -121 -269 -132 -273 -4 -2 -8 -8 -8 -13 0 -9 -98 -170 -109 -179 -3
-3 -22 -27 -41 -55 -91 -131 -278 -325 -396 -410 -15 -11 -33 -25 -39 -32 -37
-36 -250 -165 -370 -223 -229 -112 -546 -208 -745 -226 -30 -3 -66 -7 -80 -10
-29 -5 -307 -5 -365 0 -82 7 -170 18 -176 22 -4 2 -24 6 -45 10 -55 9 -217 66
-309 109 -75 35 -213 119 -265 161 -97 79 -187 171 -229 233 -14 20 -27 38
-31 41 -35 27 -150 283 -166 370 -2 14 -7 36 -11 50 -3 14 -8 32 -10 40 -2 8
-5 71 -8 140 -6 179 16 306 82 485 64 172 210 408 343 555 143 157 220 229
460 430 69 58 127 107 130 110 3 3 30 25 60 50 192 155 253 214 357 347 43 54
122 209 145 283 25 81 30 229 10 302 -62 231 -290 409 -567 443 -109 13 -305
0 -391 -26 -17 -5 -40 -11 -50 -13 -69 -14 -262 -93 -339 -139 -226 -136 -445
-362 -550 -567 -10 -19 -21 -37 -24 -40 -6 -5 -29 -53 -74 -152 -28 -61 -92
-248 -101 -295 -3 -15 -10 -50 -16 -78 -41 -195 -54 -403 -33 -560 16 -129 24
-186 29 -215 2 -14 7 -45 10 -70 13 -112 14 -103 -21 -200 -9 -25 -18 -52 -20
-60 -2 -8 -15 -51 -30 -95 -14 -44 -28 -88 -30 -98 -2 -10 -10 -33 -16 -52
l-13 -35 -33 83 c-35 84 -61 163 -69 207 -3 14 -10 43 -16 65 -5 22 -12 49
-14 60 -6 30 -24 126 -29 160 -3 17 -8 36 -10 44 -19 52 -26 381 -12 561 11
136 15 175 32 265 14 74 18 93 29 150 33 156 147 414 261 585 97 147 197 256
380 415 112 97 376 246 530 300 44 15 87 30 95 33 8 3 20 6 26 7 7 2 43 10 81
19 82 18 123 24 223 32 41 4 76 7 78 9 1 1 12 1 25 -1 12 -2 65 -6 117 -9z
m-118 -897 c54 -35 39 -85 -47 -161 -26 -23 -60 -53 -75 -67 -15 -14 -45 -38
-65 -55 -21 -16 -43 -35 -49 -40 -6 -6 -101 -82 -211 -170 -110 -88 -202 -162
-205 -165 -3 -3 -36 -32 -74 -64 -37 -33 -87 -79 -111 -104 -26 -26 -45 -39
-49 -33 -4 6 -5 15 -2 19 3 5 7 20 10 34 9 51 57 192 90 262 83 180 217 334
391 448 157 103 324 143 397 96z m1464 -1409 c-24 -180 -165 -448 -316 -600
-59 -59 -172 -139 -257 -183 -145 -73 -333 -75 -333 -3 0 50 92 154 235 266
44 35 89 70 100 79 11 10 85 69 165 133 209 168 206 165 310 266 52 51 97 93
99 93 2 0 1 -23 -3 -51z"/>
</g>
</svg>
