<?xml version="1.0" standalone="no"?>
<!DOCTYPE svg PUBLIC "-//W3C//DTD SVG 20010904//EN"
 "http://www.w3.org/TR/2001/REC-SVG-20010904/DTD/svg10.dtd">
<svg version="1.0" xmlns="http://www.w3.org/2000/svg"
 width="700.000000pt" height="700.000000pt" viewBox="0 0 700.000000 700.000000"
 preserveAspectRatio="xMidYMid meet">
<metadata>
Created by potrace 1.14, written by Peter Selinger 2001-2017
</metadata>
<g transform="translate(0.000000,700.000000) scale(0.100000,-0.100000)"
fill="#000000" stroke="none">
<path d="M3278 6996 c-1 -2 -42 -6 -89 -10 -47 -4 -95 -8 -105 -10 -10 -2 -46
-7 -79 -11 -32 -4 -68 -9 -80 -11 -11 -2 -45 -8 -75 -14 -395 -72 -827 -239
-1175 -453 -19 -12 -209 -139 -249 -167 -43 -30 -174 -136 -251 -204 -85 -75
-306 -298 -300 -304 3 -4 74 -11 175 -17 76 -5 480 -5 560 -1 127 8 249 18
345 31 200 26 250 33 275 40 8 2 31 6 50 9 36 6 47 8 135 26 28 6 59 12 70 14
11 3 49 12 85 21 36 9 76 18 90 21 170 35 629 193 915 314 217 92 636 294 851
410 44 24 102 55 129 70 28 15 61 33 75 40 24 13 23 14 -45 36 -140 47 -371
105 -475 120 -19 3 -60 9 -91 15 -31 5 -81 12 -110 15 -30 3 -67 8 -84 10 -34
6 -541 14 -547 10z"/>
<path d="M4895 6677 c-51 -29 -179 -99 -270 -147 -55 -29 -104 -56 -110 -61
-14 -10 -515 -261 -600 -300 -698 -318 -1349 -513 -1915 -574 -36 -4 -72 -9
-80 -10 -17 -3 -121 -12 -260 -22 -185 -13 -745 -5 -810 12 -8 2 -47 7 -86 10
l-71 6 -40 -53 c-70 -94 -233 -357 -233 -377 0 -5 35 -14 78 -21 187 -32 291
-58 492 -121 52 -17 104 -34 115 -39 11 -5 67 -28 125 -51 190 -75 423 -194
781 -397 21 -11 81 -44 135 -73 55 -29 104 -55 109 -59 25 -19 241 -112 321
-138 96 -32 162 -50 252 -66 185 -34 519 -39 717 -11 17 2 66 9 110 15 63 9
226 39 355 65 95 19 478 119 595 155 546 168 576 179 641 235 384 334 743 586
1043 733 l119 58 -21 30 c-29 41 -155 212 -175 236 -66 80 -113 131 -241 259
-156 155 -228 219 -356 316 -101 76 -291 203 -304 203 -5 0 -11 4 -13 8 -7 18
-346 193 -370 191 -7 -1 -22 -6 -33 -12z"/>
<path d="M6389 5183 c-177 -88 -327 -180 -499 -307 -113 -82 -359 -274 -380
-296 -8 -8 -46 -41 -85 -74 -38 -32 -95 -80 -125 -106 -30 -26 -113 -98 -185
-160 -71 -62 -141 -122 -155 -134 -601 -519 -1012 -758 -1460 -851 -103 -21
-193 -29 -335 -29 -259 -1 -422 29 -895 164 -244 70 -378 105 -480 126 -41 9
-84 18 -95 20 -11 2 -36 7 -55 9 -19 3 -44 8 -56 10 -11 2 -42 7 -70 10 -27 3
-80 10 -119 14 -88 11 -438 11 -525 0 -36 -4 -90 -10 -120 -13 -55 -6 -66 -8
-170 -26 -95 -17 -102 -19 -245 -55 -170 -43 -142 -35 -248 -69 l-87 -27 5
-97 c3 -53 7 -113 10 -132 2 -19 7 -64 10 -100 7 -66 16 -82 71 -120 12 -8 43
-34 70 -56 127 -108 452 -351 606 -453 76 -50 139 -91 142 -91 2 0 35 -19 72
-42 202 -122 547 -266 755 -314 146 -34 285 -56 429 -70 51 -4 371 -5 395 0
11 2 52 7 90 10 245 24 457 74 817 192 186 61 467 138 547 150 20 3 52 9 71
14 19 5 76 14 125 20 50 6 106 13 125 15 145 18 479 24 581 11 24 -3 71 -8
104 -11 51 -5 124 -16 269 -41 16 -3 32 -6 35 -8 3 -2 23 -7 44 -10 62 -10
254 -60 497 -130 361 -103 529 -140 688 -152 l88 -6 31 63 c84 170 199 509
239 704 60 291 78 463 79 750 0 185 -11 419 -20 435 -1 3 -6 30 -9 60 -7 61
-10 80 -32 190 -8 41 -17 86 -20 100 -22 114 -101 367 -164 525 -62 156 -210
455 -224 455 -2 0 -63 -30 -137 -67z"/>
<path d="M292 4903 c-10 -21 -36 -83 -56 -138 -21 -55 -41 -109 -46 -120 -39
-91 -122 -421 -144 -570 -4 -23 -8 -50 -10 -60 -2 -11 -7 -47 -10 -80 -4 -33
-9 -76 -11 -95 -8 -66 -15 -210 -10 -210 2 0 24 7 49 15 72 25 426 112 481
119 28 4 73 11 100 16 222 41 684 49 890 15 55 -9 90 -15 130 -21 155 -22 611
-138 920 -233 41 -13 152 -39 195 -46 19 -3 53 -10 75 -15 127 -28 427 -34
550 -11 39 7 83 15 98 18 135 22 400 131 582 240 84 50 291 188 305 204 3 3
39 30 80 61 112 84 284 228 273 228 -6 0 -30 -7 -53 -15 -24 -8 -52 -17 -64
-19 -12 -3 -52 -14 -91 -25 -210 -59 -300 -81 -505 -125 -143 -30 -204 -41
-330 -61 -149 -22 -314 -35 -485 -36 -179 -1 -301 11 -488 46 -82 16 -214 57
-323 101 -142 57 -388 184 -639 330 -262 152 -546 285 -785 368 -135 47 -374
111 -459 122 -25 3 -48 7 -51 9 -3 2 -30 6 -60 10 -30 3 -63 8 -72 11 -12 4
-22 -6 -36 -33z"/>
<path d="M114 2604 c5 -16 10 -38 12 -48 9 -45 89 -280 130 -381 53 -130 144
-312 221 -445 51 -87 197 -308 212 -320 3 -3 26 -32 51 -65 116 -156 302 -349
510 -530 126 -109 390 -289 565 -385 237 -131 572 -265 785 -315 8 -2 53 -13
100 -24 47 -11 96 -22 110 -25 14 -2 52 -9 85 -15 209 -37 320 -46 605 -46
210 0 356 7 430 19 14 3 48 7 75 11 28 3 57 8 65 10 8 2 31 6 50 9 193 29 524
127 747 222 566 242 1060 629 1429 1120 78 104 238 344 232 349 -2 2 -28 5
-58 8 -30 4 -80 11 -110 17 -30 6 -71 13 -90 16 -48 8 -266 65 -456 119 -88
26 -166 48 -174 50 -8 2 -67 17 -130 34 -114 30 -218 54 -295 66 -187 29 -244
36 -340 42 -247 15 -449 5 -680 -33 -145 -24 -148 -24 -190 -36 -22 -5 -49
-12 -60 -14 -47 -9 -65 -13 -155 -39 -52 -14 -183 -55 -290 -90 -263 -86 -437
-131 -635 -164 -59 -10 -97 -15 -225 -29 -88 -9 -468 -9 -555 1 -63 7 -129 16
-220 32 -313 54 -669 189 -985 372 -131 76 -133 78 -144 86 -6 4 -63 42 -126
84 -126 84 -259 180 -390 283 -114 89 -115 90 -106 54z"/>
</g>
</svg>
