<svg width="275" height="269" viewBox="0 0 275 269" fill="none" xmlns="http://www.w3.org/2000/svg">
<path d="M275 0.133071V8.64952V15.7687V215.905V216.571H198.298C198.037 216.571 197.84 216.438 197.709 216.171C197.644 216.105 197.644 215.972 197.644 215.905V214.375H197.251C196.924 214.375 196.662 214.109 196.662 213.776V210.982C196.662 210.649 196.924 210.383 197.251 210.383H197.644V208.853C197.644 208.72 197.709 208.586 197.775 208.453C197.906 208.32 198.102 208.187 198.298 208.187H201.309V180.775C201.309 180.642 201.44 180.442 201.571 180.376V179.644C201.571 179.311 201.832 179.045 202.16 179.045H204.908C205.236 179.045 205.497 179.311 205.497 179.644V180.376C205.694 180.442 205.759 180.575 205.759 180.775V208.187H266.819V135.664H257.134H205.759V152.697C205.759 152.83 205.628 153.03 205.497 153.096V153.695C205.497 154.028 205.236 154.294 204.908 154.294H203.861C203.861 154.427 203.861 154.627 203.796 154.76L191.099 177.515C190.969 177.648 190.772 177.781 190.576 177.781C190.51 177.781 190.38 177.781 190.314 177.714L189.005 176.982C188.874 176.916 188.809 176.783 188.743 176.65C188.743 176.45 188.743 176.317 188.809 176.184L201.571 153.562V153.096C201.374 153.03 201.309 152.897 201.309 152.697V135.664H194.961H187.958C187.762 135.664 187.565 135.465 187.5 135.265H186.976C186.649 135.265 186.387 134.999 186.387 134.666V131.872C186.387 131.539 186.649 131.273 186.976 131.273H187.565C187.631 131.14 187.762 131.007 187.958 131.007H194.437V117.567C194.437 117.367 194.503 117.234 194.568 117.168C194.699 117.101 194.83 117.035 194.961 117.035H257.068H266.754V16.4341H227.683H227.618C227.552 16.3676 227.487 16.3676 227.421 16.3676H227.356H195.55C195.223 16.3676 194.961 16.1014 194.961 15.7687V0.598815C194.961 0.266141 195.223 0 195.55 0H227.683C227.814 0 227.88 2.89935e-06 227.945 0.0665377L273.364 0.133071H275Z" fill="#A3A4A5"/>
<path d="M119.241 0.133071H149.411L168.979 0.0665377H169.961C170.288 0.0665377 170.484 0.332676 170.484 0.598815V4.79051C170.615 4.92358 170.681 5.05664 170.681 5.25625V6.18773H170.811H170.877C170.942 6.25427 170.942 6.25427 171.008 6.25427H171.139L194.11 19.7608L194.175 19.8274L194.241 19.8939C194.306 19.9604 194.306 19.9604 194.306 20.027C194.372 20.027 194.372 20.0935 194.372 20.0935V20.2266V20.3596C194.306 20.4262 194.306 20.4262 194.306 20.4927V20.6258L193.586 21.9565L193.521 22.023C193.455 22.023 193.455 22.0895 193.39 22.0895C193.325 22.1561 193.259 22.1561 193.128 22.1561H192.997H192.932C192.932 22.0895 192.866 22.0895 192.866 22.0895L170.026 8.64952H169.503V15.7687C169.503 15.9683 169.437 16.1014 169.372 16.1679C169.241 16.2345 169.11 16.301 168.979 16.301H157.592V92.9491C157.592 93.0156 157.526 93.0821 157.526 93.1487C157.461 93.2152 157.461 93.2817 157.395 93.3483V131.273H157.788L183.05 116.635C183.181 116.569 183.377 116.502 183.508 116.569C183.639 116.569 183.77 116.702 183.835 116.835L184.424 118.033C184.555 118.299 184.49 118.631 184.228 118.765L158.966 133.602C158.901 133.668 158.835 133.668 158.704 133.668H158.573V134.6C158.573 134.932 158.312 135.199 157.984 135.199H157.461C157.461 135.332 157.395 135.398 157.33 135.465L157.33 135.465C157.199 135.531 157.068 135.598 156.937 135.598H153.403C153.207 135.598 153.01 135.398 152.945 135.199H152.291C151.963 135.199 151.702 134.932 151.702 134.6V133.668C151.636 133.668 151.505 133.668 151.44 133.602L126.178 118.765C125.916 118.631 125.851 118.299 125.982 118.033L126.571 116.835C126.636 116.702 126.767 116.635 126.898 116.569C127.029 116.569 127.225 116.569 127.356 116.635L152.487 131.406H153.01V93.5479H150C149.738 93.5479 149.542 93.4148 149.411 93.1487C149.346 93.0821 149.346 92.9491 149.346 92.8825V16.301H119.241C119.11 16.3675 119.044 16.3676 118.979 16.3676H60.5366C60.4057 16.3676 60.3403 16.4341 60.2094 16.4341H16.034V39.9874C16.034 40.1205 16.034 40.2535 15.9686 40.3201V71.6579C15.9686 71.791 15.9686 71.8576 15.9031 71.9241V127.148H91.4267C91.7539 127.148 92.0811 127.414 92.0811 127.813V130.741H122.382C122.579 130.741 122.775 130.94 122.84 131.14H123.495C123.822 131.14 124.084 131.406 124.084 131.739V134.4C124.084 134.733 123.822 134.999 123.495 134.999H122.84V138.259C122.84 138.459 122.775 138.592 122.709 138.658L122.644 138.725V139.324L137.173 164.873C137.238 165.006 137.238 165.206 137.238 165.339C137.238 165.472 137.107 165.605 136.976 165.672L135.668 166.403C135.602 166.47 135.471 166.47 135.406 166.47C135.209 166.47 135.013 166.403 134.882 166.204L120.419 140.521C120.288 140.388 120.288 140.189 120.353 140.056H119.306C118.979 140.056 118.717 139.79 118.717 139.457V138.725L118.586 138.592C118.521 138.459 118.455 138.392 118.455 138.259V135.332H91.7539C91.6885 135.332 91.623 135.398 91.5576 135.398C91.4921 135.465 91.4267 135.465 91.3612 135.465H15.9031V166.071C15.9686 166.204 15.9686 166.27 15.9686 166.337V226.085C15.9686 226.218 15.9686 226.285 15.9031 226.351V260.484H128.927V212.512H119.044C118.783 212.512 118.521 212.246 118.521 211.98V170.063V169.996V169.93C118.521 169.797 118.652 169.597 118.783 169.531V168.799C118.783 168.466 119.045 168.2 119.372 168.2H122.12C122.448 168.2 122.709 168.466 122.709 168.799V169.531L122.775 169.597C122.84 169.73 122.906 169.863 122.906 169.996V208.121H129.385H163.874C164.136 208.121 164.398 208.387 164.398 208.653V210.183H164.791C165.118 210.183 165.38 210.449 165.38 210.782V211.847C165.51 211.847 165.707 211.847 165.838 211.913L194.175 228.414C194.306 228.48 194.372 228.613 194.437 228.747C194.503 228.946 194.437 229.079 194.372 229.212L193.652 230.41C193.586 230.609 193.39 230.676 193.194 230.676C193.128 230.676 192.997 230.676 192.932 230.609L164.725 214.175H164.398V215.706C164.398 216.038 164.136 216.238 163.874 216.238H156.217V263.278V263.81H156.021V263.877C156.021 264.076 155.89 264.21 155.694 264.21H136.911V268.335C136.911 268.401 136.846 268.468 136.846 268.534C136.78 268.601 136.78 268.667 136.715 268.734V269H128.796H15.8377H0.065439V226.75C-5.99092e-06 226.617 0 226.551 0 226.484V166.736C0 166.603 -5.99092e-06 166.536 0.065439 166.47V72.3233C-5.99092e-06 72.1902 0 72.1237 0 72.0571V40.3866V40.3866C0 40.2535 0 40.187 0.065439 40.1205V0.665349C0.065439 0.332675 0.327221 0.133071 0.589001 0.133071H59.9476C60.0785 0.0665366 60.144 0.0665377 60.2094 0.0665377H118.979C119.11 0.0665377 119.175 0.0665366 119.241 0.133071Z" fill="#A3A4A5"/>
</svg>
