<svg width="250" height="250" viewBox="0 0 250 250" fill="none" xmlns="http://www.w3.org/2000/svg">
<rect x="31" y="31" width="189" height="189" rx="94.5" fill="#F6F6F6"/>
<path d="M205.801 155.372C200.806 168.769 192.543 180.705 181.762 190.097C170.982 199.489 158.026 206.038 144.071 209.15C130.117 212.263 115.605 211.839 101.856 207.918C88.1067 203.997 75.5548 196.703 65.3408 186.698L125.391 125.391L205.801 155.372Z" fill="#9FDFEB"/>
<circle cx="126" cy="125" r="20" fill="white"/>
<g clip-path="url(#clip0_5401_141216)">
<path d="M131.334 130.333C131.334 130.51 131.263 130.679 131.138 130.805C131.013 130.93 130.844 131 130.667 131H121.334C121.157 131 120.987 130.93 120.862 130.805C120.737 130.679 120.667 130.51 120.667 130.333V124.333H118.667L125.552 118.074C125.674 117.963 125.834 117.901 126 117.901C126.166 117.901 126.326 117.963 126.449 118.074L133.334 124.333H131.334V130.333ZM123 125.666C123 126.462 123.316 127.225 123.879 127.788C124.442 128.35 125.205 128.666 126 128.666C126.796 128.666 127.559 128.35 128.122 127.788C128.684 127.225 129 126.462 129 125.666H127.667C127.667 126.108 127.491 126.532 127.179 126.845C126.866 127.158 126.442 127.333 126 127.333C125.558 127.333 125.134 127.158 124.822 126.845C124.509 126.532 124.334 126.108 124.334 125.666H123Z" fill="#38ADC2"/>
</g>
<rect x="31.5" y="31.5" width="188" height="188" rx="94" stroke="#38ADC2" stroke-opacity="0.44"/>
<circle cx="125" cy="125" r="124.5" stroke="#38ADC2" stroke-opacity="0.24"/>
<defs>
<clipPath id="clip0_5401_141216">
<rect width="16" height="16" fill="white" transform="translate(118 117)"/>
</clipPath>
</defs>
</svg>
