<?xml version="1.0" standalone="no"?>
<!DOCTYPE svg PUBLIC "-//W3C//DTD SVG 20010904//EN"
 "http://www.w3.org/TR/2001/REC-SVG-20010904/DTD/svg10.dtd">
<svg version="1.0" xmlns="http://www.w3.org/2000/svg"
 width="908.000000pt" height="908.000000pt" viewBox="0 0 908.000000 908.000000"
 preserveAspectRatio="xMidYMid meet">
<metadata>
Created by potrace 1.14, written by Peter Selinger 2001-2017
</metadata>
<g transform="translate(0.000000,908.000000) scale(0.100000,-0.100000)"
fill="#000000" stroke="none">
<path d="M2500 8737 c-3 -3 -39 -7 -80 -11 -127 -11 -138 -12 -290 -42 -14 -3
-59 -14 -100 -25 -41 -11 -79 -21 -85 -22 -5 -2 -16 -6 -22 -10 -7 -5 -13 -6
-13 -3 0 5 -128 -38 -220 -74 -89 -35 -258 -120 -350 -175 -47 -28 -96 -58
-110 -66 -14 -7 -27 -16 -30 -19 -3 -3 -50 -39 -105 -80 -55 -41 -116 -88
-135 -104 -76 -65 -298 -295 -350 -361 -30 -38 -57 -72 -61 -75 -14 -11 -139
-200 -139 -210 0 -5 -4 -10 -9 -10 -5 0 -14 -12 -20 -27 -12 -29 -42 -84 -51
-93 -16 -16 -164 -342 -174 -385 -14 -53 -20 -72 -30 -84 -6 -8 -10 -16 -8
-18 1 -1 2 -4 1 -5 0 -2 -2 -10 -4 -18 -6 -23 -13 -51 -29 -110 -8 -30 -17
-66 -20 -80 -2 -14 -9 -45 -15 -70 -5 -25 -13 -67 -17 -95 -3 -27 -8 -59 -10
-70 -22 -103 -25 -685 -4 -685 3 0 5 -10 6 -22 0 -32 14 -129 18 -137 4 -5 8
-26 21 -106 6 -30 51 -192 74 -260 53 -162 216 -511 243 -523 5 -2 8 -7 8 -12
0 -5 28 -50 61 -101 63 -95 72 -107 101 -140 10 -10 18 -23 18 -27 0 -4 9 -14
20 -22 11 -8 20 -19 20 -25 0 -5 27 -38 60 -72 32 -35 57 -63 56 -63 -1 0 134
-138 301 -308 167 -169 444 -450 616 -624 172 -174 526 -534 787 -798 261
-265 606 -614 765 -776 160 -162 288 -294 285 -294 -2 0 7 -8 20 -17 14 -10
32 -26 41 -38 16 -18 150 -155 775 -787 l224 -227 254 257 c140 141 341 345
446 452 106 107 407 413 671 680 263 267 596 604 739 750 144 146 483 490 755
765 853 864 885 897 885 907 0 5 4 7 9 3 5 -3 12 4 16 15 3 11 13 20 21 20 8
0 14 4 14 8 0 4 15 24 32 43 27 28 76 87 121 144 4 6 17 21 28 35 25 30 180
263 200 301 70 133 152 309 152 327 0 6 3 12 7 12 6 0 17 28 35 90 1 3 4 12 8
20 6 17 30 91 33 103 1 4 2 8 4 10 1 1 3 9 5 17 1 8 11 44 20 80 10 36 18 73
17 82 0 10 4 20 9 23 5 4 7 10 4 15 -3 5 -1 20 4 34 6 13 12 46 15 73 3 26 7
57 10 69 20 96 28 473 13 624 -4 41 -9 95 -12 120 -2 25 -7 56 -11 70 -8 29
-14 63 -17 103 -1 15 -5 27 -8 27 -3 0 -11 30 -18 68 -7 37 -35 132 -62 212
-27 80 -50 151 -51 158 -1 6 -4 12 -8 12 -3 0 -12 17 -19 38 -20 56 -74 166
-86 174 -5 4 -7 8 -2 8 4 0 -4 18 -18 40 -14 22 -22 40 -18 40 5 0 3 4 -3 8
-9 6 -31 39 -79 120 -16 27 -89 136 -102 152 -6 8 -42 53 -79 100 -38 47 -82
99 -99 116 -16 17 -46 49 -66 70 -34 37 -114 112 -190 180 -46 41 -236 184
-244 184 -3 0 -11 5 -18 10 -22 20 -119 80 -127 80 -5 0 -15 6 -22 13 -17 17
-256 134 -308 152 -3 1 -18 7 -35 14 -16 7 -70 26 -120 42 -49 17 -97 33 -105
36 -8 4 -17 7 -20 8 -10 2 -80 16 -87 17 -5 0 -18 4 -31 9 -13 5 -37 11 -55
14 -31 5 -53 9 -107 20 -14 3 -47 8 -75 11 -27 2 -70 8 -95 11 -58 9 -425 9
-510 1 -108 -11 -171 -20 -220 -32 -14 -3 -36 -8 -50 -10 -84 -14 -295 -76
-415 -123 -76 -30 -259 -116 -330 -157 -52 -29 -171 -101 -175 -106 -3 -4 -27
-21 -55 -40 -43 -29 -130 -95 -145 -110 -3 -3 -32 -27 -65 -55 -66 -54 -165
-151 -161 -157 2 -1 -25 24 -58 57 -34 34 -89 84 -123 112 -34 28 -72 61 -84
72 -13 12 -26 21 -30 21 -4 0 -14 6 -21 13 -61 60 -424 277 -463 277 -7 0 -15
4 -17 9 -6 17 -366 149 -424 156 -11 1 -25 4 -30 7 -5 4 -25 9 -44 12 -19 3
-46 8 -60 11 -48 11 -125 25 -170 31 -25 3 -58 8 -75 10 -42 7 -440 16 -445
11z"/>
</g>
</svg>
