<?xml version="1.0" standalone="no"?>
<!DOCTYPE svg PUBLIC "-//W3C//DTD SVG 20010904//EN"
 "http://www.w3.org/TR/2001/REC-SVG-20010904/DTD/svg10.dtd">
<svg version="1.0" xmlns="http://www.w3.org/2000/svg"
 width="700.000000pt" height="700.000000pt" viewBox="0 0 700.000000 700.000000"
 preserveAspectRatio="xMidYMid meet">
<metadata>
Created by potrace 1.14, written by Peter Selinger 2001-2017
</metadata>
<g transform="translate(0.000000,700.000000) scale(0.100000,-0.100000)"
fill="#000000" stroke="none">
<path d="M0 3500 l0 -3500 3500 0 3500 0 0 3500 0 3500 -3500 0 -3500 0 0
-3500z m2947 945 c1 -292 2 -540 2 -553 l1 -22 551 2 551 3 0 548 c0 301 3
547 6 548 23 3 709 4 720 1 9 -3 12 -306 12 -1472 0 -1166 -3 -1469 -12 -1472
-11 -3 -698 -2 -720 1 -3 1 -6 249 -5 551 l2 550 -554 -2 -553 -3 0 -547 c0
-502 -1 -546 -16 -550 -9 -2 -174 -3 -367 -3 l-350 1 -3 1469 c-1 872 2 1471
7 1474 5 3 170 6 368 6 l358 -1 2 -529z"/>
</g>
</svg>
