<?xml version="1.0" standalone="no"?>
<!DOCTYPE svg PUBLIC "-//W3C//DTD SVG 20010904//EN"
 "http://www.w3.org/TR/2001/REC-SVG-20010904/DTD/svg10.dtd">
<svg version="1.0" xmlns="http://www.w3.org/2000/svg"
 width="1790.000000pt" height="1790.000000pt" viewBox="0 0 1790.000000 1790.000000"
 preserveAspectRatio="xMidYMid meet">
<metadata>
Created by potrace 1.14, written by Peter Selinger 2001-2017
</metadata>
<g transform="translate(0.000000,1790.000000) scale(0.100000,-0.100000)"
fill="#000000" stroke="none">
<path d="M7637 17894 c-1 -1 -45 -5 -97 -8 -52 -4 -108 -9 -125 -11 -16 -2
-49 -6 -72 -9 -135 -18 -128 -17 -278 -46 -89 -17 -367 -86 -423 -105 -7 -3
-14 -5 -17 -5 -11 -3 -225 -80 -275 -100 -183 -72 -438 -196 -578 -282 -34
-21 -65 -38 -67 -38 -14 0 -347 -232 -448 -313 -300 -240 -572 -520 -808 -832
-234 -310 -468 -724 -598 -1060 -18 -44 -36 -89 -41 -100 -5 -11 -30 -81 -55
-155 -83 -243 -163 -567 -199 -807 -18 -117 -23 -157 -31 -233 -4 -36 -8 -79
-10 -97 -7 -60 -18 -309 -18 -403 0 -94 11 -373 17 -440 11 -116 19 -184 31
-255 47 -277 56 -329 60 -335 2 -3 6 -23 9 -45 4 -22 9 -48 12 -57 3 -9 6 -25
8 -35 24 -120 139 -481 221 -693 79 -204 165 -370 350 -678 28 -46 71 -107 78
-110 4 -2 7 -8 7 -13 0 -8 88 -135 127 -184 5 -5 33 -41 63 -80 67 -86 71 -92
91 -113 8 -9 56 -64 106 -122 503 -583 1258 -1122 2013 -1435 63 -26 124 -52
135 -56 284 -122 904 -293 1205 -334 25 -3 52 -8 60 -10 8 -3 38 -7 65 -10 28
-3 59 -7 70 -9 11 -2 54 -7 95 -11 41 -3 82 -8 90 -10 8 -2 60 -7 115 -11 55
-3 118 -8 140 -10 57 -4 562 -4 610 0 22 2 87 7 145 11 57 4 112 8 122 10 9 2
43 6 75 10 32 3 103 12 158 21 98 14 120 17 180 29 17 3 46 8 65 11 31 5 239
50 265 58 6 1 26 6 45 10 222 50 649 193 890 299 276 121 447 208 695 355 599
355 1163 857 1552 1380 32 42 60 79 63 82 27 24 234 348 307 480 51 92 153
302 153 315 0 2 11 28 24 57 112 250 264 753 301 998 2 14 11 68 21 120 9 52
17 104 19 115 2 11 6 34 9 50 2 17 8 62 12 100 3 39 8 81 9 95 22 178 22 631
0 850 -19 186 -30 265 -71 504 -2 17 -14 68 -24 113 -11 46 -22 93 -24 105
-21 102 -107 383 -167 546 -122 329 -297 673 -492 967 -94 141 -287 396 -337
445 -3 3 -30 34 -60 69 -164 193 -493 494 -701 640 -470 333 -866 525 -1380
671 -74 21 -152 41 -173 44 -21 4 -41 8 -45 10 -3 2 -23 7 -43 10 -21 3 -57
10 -80 15 -24 5 -61 12 -83 15 -22 3 -57 9 -78 12 -49 8 -79 11 -153 19 -33 4
-74 8 -90 11 -16 2 -179 7 -361 10 l-333 7 0 -4322 c0 -4112 1 -4322 18 -4317
9 3 62 14 117 26 134 27 264 62 418 112 l127 41 0 3876 0 3876 43 -1 c45 -1
153 -12 177 -19 8 -2 31 -7 50 -10 334 -53 771 -211 1100 -396 69 -39 256
-156 290 -182 14 -10 67 -50 119 -89 572 -426 1038 -1053 1303 -1753 69 -183
159 -489 182 -620 3 -16 8 -41 11 -55 18 -90 39 -230 60 -403 8 -67 19 -309
18 -417 -1 -219 -15 -400 -44 -575 -11 -66 -22 -135 -25 -154 -3 -18 -8 -43
-10 -55 -2 -11 -8 -46 -14 -76 -24 -128 -127 -481 -166 -567 -8 -17 -14 -35
-14 -40 -1 -4 -9 -26 -20 -48 -11 -22 -19 -43 -20 -47 0 -7 -75 -173 -94 -208
-8 -14 -34 -63 -58 -110 -25 -47 -55 -101 -66 -120 -12 -19 -25 -42 -28 -50
-12 -27 -210 -324 -258 -385 -25 -33 -54 -71 -65 -85 -60 -78 -91 -113 -165
-190 -86 -89 -227 -223 -287 -275 -19 -16 -52 -46 -74 -65 -22 -19 -58 -48
-79 -65 -21 -16 -44 -35 -50 -41 -22 -21 -243 -182 -336 -245 -381 -257 -688
-418 -1190 -622 -317 -129 -592 -211 -915 -273 -41 -7 -222 -34 -275 -39 -30
-3 -69 -8 -86 -10 -178 -24 -722 -24 -864 -1 -14 2 -54 7 -90 11 -36 3 -74 8
-85 10 -11 2 -42 7 -70 10 -83 10 -291 54 -450 95 -153 40 -472 145 -490 161
-5 5 -15 9 -23 9 -7 0 -32 8 -55 19 -23 10 -105 44 -182 76 -817 334 -1645
935 -2065 1500 -25 33 -47 62 -50 65 -12 11 -152 222 -205 310 -176 289 -375
750 -431 995 -1 6 -11 46 -23 91 -11 44 -23 98 -27 120 -3 21 -7 41 -9 44 -2
3 -6 26 -10 50 -5 42 -14 90 -36 200 -9 50 -19 144 -34 347 -8 102 -8 436 -1
523 4 36 9 92 11 125 3 33 8 78 11 100 2 22 7 58 10 80 7 54 45 268 49 275 2
3 6 21 9 40 23 149 143 526 236 745 15 36 180 370 190 385 13 21 91 151 104
175 44 79 219 320 320 440 506 597 1174 1026 1871 1201 33 9 67 17 75 19 48
13 202 44 240 49 25 3 54 8 65 10 11 2 50 7 88 11 l67 7 0 -3879 0 -3879 128
-42 c120 -39 256 -77 312 -88 14 -3 41 -9 60 -14 19 -5 51 -12 70 -15 19 -3
52 -10 73 -14 l37 -9 0 4320 0 4319 -285 -2 c-157 -1 -286 -3 -288 -5z"/>
<path d="M13865 10463 c-57 -80 -157 -216 -165 -223 -3 -3 -32 -39 -65 -80
-32 -41 -61 -77 -64 -80 -19 -17 -71 -82 -71 -89 0 -4 28 -37 61 -72 323 -338
613 -734 831 -1134 31 -55 177 -355 188 -385 7 -19 17 -39 21 -45 8 -11 119
-292 119 -301 0 -3 6 -20 14 -37 7 -18 32 -90 55 -162 23 -71 46 -143 51 -160
16 -49 98 -377 104 -415 9 -54 16 -94 21 -110 2 -8 7 -28 10 -45 2 -16 7 -41
10 -55 11 -58 39 -258 51 -370 4 -36 8 -76 10 -90 26 -211 26 -767 0 -1070 -4
-46 -16 -149 -21 -180 -2 -14 -6 -44 -9 -67 -3 -24 -9 -62 -12 -85 -15 -117
-60 -334 -105 -518 -45 -180 -163 -562 -202 -653 -8 -18 -40 -95 -72 -172 -53
-128 -191 -415 -244 -507 -11 -21 -29 -53 -39 -70 -53 -92 -98 -168 -136 -228
-100 -155 -326 -473 -355 -500 -4 -3 -40 -45 -81 -95 -385 -461 -878 -871
-1410 -1173 -82 -46 -364 -187 -425 -212 -11 -4 -36 -15 -55 -23 -200 -87
-552 -204 -730 -242 -8 -2 -53 -12 -100 -24 -72 -17 -203 -41 -300 -56 -87
-13 -183 -25 -235 -30 -33 -3 -79 -7 -103 -10 l-43 -4 3 3712 c3 3295 1 3712
-12 3711 -8 -1 -76 -15 -150 -32 -74 -17 -153 -33 -175 -36 -23 -4 -52 -9 -65
-11 -55 -11 -208 -35 -238 -37 -18 -1 -32 -2 -33 -3 0 0 -3 -1799 -6 -3999
l-4 -3998 343 6 c189 3 363 8 388 10 194 17 257 24 305 31 71 10 93 14 140 20
62 8 336 62 390 76 22 6 48 13 59 15 57 11 200 51 341 95 503 159 963 381
1415 682 165 110 475 344 546 412 6 5 46 42 90 80 221 196 502 495 694 738 8
11 20 24 25 31 6 6 50 63 97 127 136 184 311 451 410 629 14 25 35 63 48 85
135 238 322 663 429 979 47 136 133 427 145 486 3 14 16 70 30 125 32 131 84
409 102 540 12 95 17 133 19 155 1 14 6 54 10 89 23 205 30 367 30 676 -1 305
-9 495 -30 655 -2 19 -7 60 -10 90 -8 86 -14 128 -29 225 -8 50 -17 106 -20
125 -8 48 -19 105 -62 310 -11 53 -76 306 -100 388 -128 444 -346 960 -562
1335 -12 20 -30 52 -40 70 -57 98 -273 431 -292 447 -3 3 -23 30 -44 60 -37
52 -217 282 -240 306 -6 6 -36 40 -66 75 -67 77 -149 165 -256 277 l-81 83
-48 -68z"/>
<path d="M3913 10452 c-180 -183 -321 -342 -443 -497 -30 -39 -57 -72 -60 -75
-7 -6 -96 -129 -144 -197 -20 -29 -51 -74 -69 -100 -157 -226 -367 -608 -507
-923 -127 -285 -278 -726 -344 -1000 -41 -175 -67 -285 -71 -314 -3 -17 -12
-65 -20 -106 -7 -41 -17 -95 -21 -120 -3 -25 -8 -54 -10 -64 -5 -25 -22 -158
-29 -216 -2 -25 -7 -65 -10 -90 -7 -49 -10 -88 -22 -260 -10 -147 -10 -691 1
-835 4 -60 9 -128 11 -151 3 -38 9 -100 20 -184 2 -19 7 -57 10 -85 3 -27 8
-61 10 -75 2 -14 7 -43 10 -65 3 -23 8 -52 10 -65 3 -14 12 -65 21 -115 76
-442 266 -1054 445 -1433 21 -46 39 -86 39 -89 0 -6 134 -273 173 -343 16 -30
40 -74 53 -98 189 -341 488 -756 789 -1091 124 -138 425 -429 545 -527 19 -16
37 -31 40 -34 22 -22 139 -114 260 -203 80 -59 150 -111 155 -115 31 -23 277
-179 375 -237 237 -140 605 -315 845 -402 223 -80 536 -174 699 -209 76 -17
169 -36 216 -44 30 -5 66 -12 79 -15 23 -4 68 -11 284 -39 17 -3 68 -8 112
-12 44 -3 94 -8 110 -10 17 -2 189 -7 383 -10 l352 -7 0 534 c1 294 2 2091 3
3994 l2 3460 -50 6 c-116 15 -159 21 -179 25 -12 3 -46 9 -76 14 -72 11 -296
57 -337 69 l-33 10 0 -102 c-1 -98 -9 -5957 -10 -6868 l0 -447 -32 3 c-103 8
-195 17 -208 20 -8 2 -37 7 -65 10 -27 4 -111 17 -185 30 -740 132 -1438 438
-2061 905 -64 48 -130 99 -145 113 -16 13 -60 51 -99 83 -94 78 -168 147 -305
284 -606 606 -1058 1351 -1328 2190 -37 114 -77 252 -88 301 -8 38 -12 55 -32
134 -32 122 -78 371 -98 520 -3 28 -8 58 -9 67 -2 9 -7 49 -10 90 -4 40 -9 87
-11 103 -25 203 -25 910 1 1077 2 13 6 55 10 93 3 39 10 95 15 125 5 30 11 73
14 95 15 141 116 601 173 785 72 231 165 486 234 638 16 35 29 65 29 67 0 17
219 445 258 504 26 40 40 63 58 96 33 60 179 273 274 400 136 181 263 332 418
494 28 30 52 57 52 61 0 3 -26 37 -58 76 -32 38 -67 81 -77 95 -135 178 -171
225 -177 227 -5 2 -8 8 -8 13 0 10 -29 53 -67 102 l-23 28 -67 -69z"/>
</g>
</svg>
