<svg width="1440" height="477" viewBox="0 0 1440 477" fill="none" xmlns="http://www.w3.org/2000/svg" preserveAspectRatio="none">
<path fill-rule="evenodd" clip-rule="evenodd" d="M722.856 425.72L739.109 0.000408197L735.684 0.000408497L721.816 425.72L722.856 425.72ZM706.263 425.72L615.4 0.000419012L611.778 0.000419329L705.177 425.72L706.263 425.72ZM707.645 425.72L630.132 0.000417724L633.69 0.000417413L708.714 425.72L707.645 425.72ZM711.124 425.72L651.663 0.000415842L648.154 0.000416149L710.065 425.72L711.124 425.72ZM712.451 425.72L665.92 0.000414596L669.388 0.000414293L713.5 425.72L712.451 425.72ZM715.854 425.72L686.932 0.000412759L683.491 0.00041306L714.81 425.72L715.854 425.72ZM701.193 425.72L660.437 285.375L700.951 425.72L701.193 425.72ZM702.658 425.72L593.018 0.000420969L596.717 0.000420646L703.761 425.72L702.658 425.72ZM4.17007e-05 477L4.11358e-05 470.539L0.00211633 470.539L0.0021169 477L4.17007e-05 477ZM3.85682e-05 441.169L3.80017e-05 434.689L0.0021132 434.689L0.00211376 441.169L3.85682e-05 441.169ZM0.00211062 405.16L3.54202e-05 405.16L3.48495e-05 398.632L0.00211004 398.632L0.00211062 405.16ZM0.00210744 368.839L3.22449e-05 368.839L3.16688e-05 362.249L0.00210686 362.249L0.00210744 368.839ZM732.363 425.72L809.914 0.000402007L806.354 0.000402319L731.293 425.72L732.363 425.72ZM0.00210423 332.079L2.90312e-05 332.079L2.84473e-05 325.399L0.00210364 325.399L0.00210423 332.079ZM2.57666e-05 294.736L2.51727e-05 287.942L0.00210037 287.943L0.00210096 294.737L2.57666e-05 294.736ZM2.24385e-05 256.667L2.18324e-05 249.733L216.001 322.201L216.001 327.302L2.24385e-05 256.667ZM725.197 425.72L756.553 0.000291031L753.11 0.000291332L724.153 425.72L725.197 425.72ZM719.484 425.72L718.311 0.000294374L721.731 0.000294075L720.523 425.72L719.484 425.72ZM216.001 300.03L0.000141103 217.705L0.000140482 210.607L216.001 294.81L216.001 300.03ZM0.000137604 177.68L0.000136966 170.385L216.001 266.653L216.001 272.012L0.000137604 177.68ZM734.829 425.72L828.268 0.000169121L824.646 0.000169437L733.742 425.72L734.829 425.72ZM726.507 425.72L770.655 0.000174157L774.124 0.000173854L727.556 425.72L726.507 425.72ZM729.942 425.72L791.89 0.000172301L788.382 0.000172607L728.883 425.72L729.942 425.72ZM717.153 425.72L700.935 0.000180252L704.36 0.000179953L718.193 425.72L717.153 425.72ZM0.00721342 128.881L216.001 237.596L216.001 243.122L0.000133995 136.404L0.000133337 128.881L0.00721342 128.881ZM0.000130258 93.6614L0.000129577 85.8615L216.001 207.482L216.001 213.206L0.000130258 93.6614ZM0.000126373 49.2157L0.000125664 41.1025L216.001 176.148L216.001 182.096L0.000126373 49.2157ZM8.23413 0.00024081L432.913 293.104L432.913 297.032L0.000122314 2.79101L0.00012207 0.000125889L8.23413 0.00024081ZM61.4397 0.000236159L72.2667 0.000235212L432.913 273.509L432.913 277.62L61.4397 0.000236159ZM128.423 0.000230303L432.913 252.833L432.913 257.151L118.808 0.000346785L128.423 0.000230303ZM736.249 425.72L843.328 0.000167804L847.03 0.00016748L737.351 425.72L736.249 425.72ZM739.048 425.72L776.166 297.139L738.814 425.72L739.048 425.72ZM169.602 0.000226703L178.233 0.000225948L432.913 230.91L432.913 235.469L169.602 0.000226703ZM215.048 0.00022273L222.868 0.000222046L432.913 207.533L432.913 212.368L215.048 0.00022273ZM256.086 0.00438222L256.086 0.000219142L263.227 0.000218518L432.913 182.462L432.913 187.625L256.086 0.00438222ZM293.442 0.00437896L293.442 0.000215876L300.017 0.000215302L432.913 155.413L432.913 160.954L293.442 0.00437896ZM327.716 0.00021288L333.808 0.000212348L432.913 126.032L432.913 132.012L327.716 0.00021288ZM359.378 0.000210112L365.058 0.000209616L432.913 93.8828L432.913 100.39L359.378 0.00437319L359.378 0.000210112ZM394.143 0.000207073L576 274.053L576 278.269L388.812 0.000207539L394.143 0.000207073ZM421.37 0.000204693L576 254.249L576 258.884L416.339 0.000205132L421.37 0.000204693ZM446.998 0.000202452L576 232.002L576 237.139L442.23 0.000202869L446.998 0.000202452ZM466.706 0.000200729L471.247 0.000200332L575.999 206.737L575.999 212.495L466.706 0.000200729ZM489.962 0.000198696L494.307 0.000198316L576 177.676L576 184.212L489.962 0.000198696ZM512.163 0.000196755L516.337 0.00019639L576 143.778L576 151.295L512.163 0.000196755ZM533.449 0.000194894L537.476 0.000194542L576 103.57L576 112.373L533.449 0.000194894ZM553.95 0.00759414L553.95 0.000193102L557.85 0.000192761L576 54.9163L576 65.4411L553.95 0.00759414ZM573.773 0.000191369L577.564 0.000191038L577.565 0.00227258L576 0.00227272L576 7.50646L573.773 0.000191369ZM862.484 0.000166129L866.277 0.000165798L864 7.67249L864 0.00224754L862.483 0.00224767L862.484 0.000166129ZM864 55.05L882.2 0.000164406L886.101 0.000164065L864 65.5674L864 55.05ZM902.575 0.000162624L906.602 0.000162272L864 112.479L864 103.679L902.575 0.000162624ZM923.716 0.000160776L927.892 0.000160411L864 151.388L864 143.873L923.716 0.000160776ZM945.748 0.00015885L950.095 0.00015847L864 184.289L864 177.755L945.748 0.00015885ZM968.81 0.000156834L973.353 0.000156437L864 212.559L864 206.801L968.81 0.000156834ZM997.833 0.000154297L864 237.198L864 232.064L993.064 0.000154714L997.833 0.000154297ZM1023.73 0.000152033L864 258.936L864 254.303L1018.7 0.000152473L1023.73 0.000152033ZM1051.26 0.000149626L864 278.316L864 274.102L1045.93 0.000150092L1051.26 0.000149626ZM1075.01 0.000147549L1080.7 0.000147052L1007.09 100.468L1007.09 93.9632L1075.01 0.000147549ZM1106.27 0.000144817L1112.37 0.000144284L1007.09 132.085L1007.09 126.104L1106.27 0.000144817ZM1140.07 0.000141862L1146.64 0.000141287L1007.09 161.017L1007.09 155.482L1140.07 0.000141862ZM1184.01 0.00013802L1007.09 187.686L1007.09 182.525L1176.87 0.000138645L1184.01 0.00013802ZM1217.24 0.000135116L1225.06 0.000134432L1007.09 212.426L1007.09 207.592L1217.24 0.000135116ZM1007.09 230.965L1261.88 0.000131213L1270.51 0.000130458L1007.09 235.521L1007.09 230.965ZM1321.32 0.000126016L1007.09 257.203L1007.09 252.886L1311.71 1.12156e-05L1321.32 0.000126016ZM1367.88 0.000121946L1378.71 0.000120999L1007.09 277.667L1007.09 273.557L1367.88 0.000121946ZM1440 0.000115641L1440 2.90491L1007.09 297.078L1007.09 293.151L1431.93 0.000116346L1440 0.000115641ZM1440 41.2131L1440 49.3222L1224 182.17L1224 176.225L1440 41.2131ZM1440 93.7647L1224 213.278L1224 207.557L1440 85.9691L1440 93.7647ZM1440 136.507L1224 243.194L1224 237.666L1440 128.977L1440 136.507Z" fill="#131617"/>
</svg>
