<svg width="1440" height="477" viewBox="0 0 1440 477" fill="none" xmlns="http://www.w3.org/2000/svg" preserveAspectRatio="none">
<path fill-rule="evenodd" clip-rule="evenodd" d="M722.856 51.2802L739.109 477L735.684 477L721.816 51.2802L722.856 51.2802ZM706.263 51.2802L615.4 477L611.778 477L705.177 51.2802L706.263 51.2802ZM707.645 51.2802L630.132 477L633.69 477L708.714 51.2802L707.645 51.2802ZM711.124 51.2802L651.663 477L648.154 477L710.065 51.2802L711.124 51.2802ZM712.451 51.2802L665.92 477L669.388 477L713.5 51.2802L712.451 51.2802ZM715.854 51.2802L686.932 477L683.491 477L714.81 51.2802L715.854 51.2802ZM701.193 51.2802L660.437 191.625L700.951 51.2802L701.193 51.2802ZM702.658 51.2802L593.018 477L596.717 477L703.761 51.2802L702.658 51.2802ZM4.17007e-05 -3.81849e-06L4.11358e-05 6.46133L0.00211633 6.46133L0.0021169 -3.8183e-06L4.17007e-05 -3.81849e-06ZM3.85682e-05 35.831L3.80017e-05 42.311L0.0021132 42.311L0.00211376 35.831L3.85682e-05 35.831ZM0.00211062 71.8395L3.54202e-05 71.8395L3.48495e-05 78.3677L0.00211004 78.3677L0.00211062 71.8395ZM0.00210744 108.161L3.22449e-05 108.161L3.16688e-05 114.751L0.00210686 114.751L0.00210744 108.161ZM732.363 51.2802L809.914 477L806.354 477L731.293 51.2802L732.363 51.2802ZM0.00210423 144.921L2.90312e-05 144.921L2.84473e-05 151.601L0.00210364 151.601L0.00210423 144.921ZM2.57666e-05 182.264L2.51727e-05 189.058L0.00210037 189.057L0.00210096 182.263L2.57666e-05 182.264ZM2.24385e-05 220.333L2.18324e-05 227.267L216.001 154.799L216.001 149.698L2.24385e-05 220.333ZM725.197 51.2803L756.553 477L753.11 477L724.153 51.2803L725.197 51.2803ZM719.484 51.2803L718.311 477L721.731 477L720.523 51.2803L719.484 51.2803ZM216.001 176.97L0.000141103 259.295L0.000140482 266.393L216.001 182.19L216.001 176.97ZM0.000137604 299.32L0.000136966 306.615L216.001 210.347L216.001 204.988L0.000137604 299.32ZM734.829 51.2805L828.268 477L824.646 477L733.742 51.2805L734.829 51.2805ZM726.507 51.2805L770.655 477L774.124 477L727.556 51.2805L726.507 51.2805ZM729.942 51.2805L791.89 477L788.382 477L728.883 51.2805L729.942 51.2805ZM717.153 51.2805L700.935 477L704.36 477L718.193 51.2805L717.153 51.2805ZM0.00721342 348.119L216.001 239.404L216.001 233.878L0.000133995 340.596L0.000133337 348.119L0.00721342 348.119ZM0.000130258 383.339L0.000129577 391.139L216.001 269.518L216.001 263.794L0.000130258 383.339ZM0.000126373 427.784L0.000125664 435.898L216.001 300.852L216.001 294.904L0.000126373 427.784ZM8.23413 477L432.913 183.896L432.913 179.968L0.000122314 474.209L0.00012207 477L8.23413 477ZM61.4397 477L72.2667 477L432.913 203.491L432.913 199.38L61.4397 477ZM128.423 477L432.913 224.167L432.913 219.849L118.808 477L128.423 477ZM736.249 51.2805L843.328 477L847.03 477L737.351 51.2805L736.249 51.2805ZM739.048 51.2805L776.166 179.861L738.814 51.2805L739.048 51.2805ZM169.602 477L178.233 477L432.913 246.09L432.913 241.531L169.602 477ZM215.048 477L222.868 477L432.913 269.467L432.913 264.632L215.048 477ZM256.086 476.996L256.086 477L263.227 477L432.913 294.538L432.913 289.375L256.086 476.996ZM293.442 476.996L293.442 477L300.017 477L432.913 321.587L432.913 316.046L293.442 476.996ZM327.716 477L333.808 477L432.913 350.968L432.913 344.988L327.716 477ZM359.378 477L365.058 477L432.913 383.117L432.913 376.61L359.378 476.996L359.378 477ZM394.143 477L576 202.947L576 198.731L388.812 477L394.143 477ZM421.37 477L576 222.751L576 218.116L416.339 477L421.37 477ZM446.998 477L576 244.998L576 239.861L442.23 477L446.998 477ZM466.706 477L471.247 477L575.999 270.263L575.999 264.505L466.706 477ZM489.962 477L494.307 477L576 299.324L576 292.788L489.962 477ZM512.163 477L516.337 477L576 333.222L576 325.705L512.163 477ZM533.449 477L537.476 477L576 373.43L576 364.627L533.449 477ZM553.95 476.992L553.95 477L557.85 477L576 422.084L576 411.559L553.95 476.992ZM573.773 477L577.564 477L577.565 476.998L576 476.998L576 469.494L573.773 477ZM862.484 477L866.277 477L864 469.328L864 476.998L862.483 476.998L862.484 477ZM864 421.95L882.2 477L886.101 477L864 411.433L864 421.95ZM902.575 477L906.602 477L864 364.521L864 373.321L902.575 477ZM923.716 477L927.892 477L864 325.612L864 333.127L923.716 477ZM945.748 477L950.095 477L864 292.711L864 299.245L945.748 477ZM968.81 477L973.353 477L864 264.441L864 270.199L968.81 477ZM997.833 477L864 239.802L864 244.936L993.064 477L997.833 477ZM1023.73 477L864 218.064L864 222.697L1018.7 477L1023.73 477ZM1051.26 477L864 198.684L864 202.898L1045.93 477L1051.26 477ZM1075.01 477L1080.7 477L1007.09 376.532L1007.09 383.037L1075.01 477ZM1106.27 477L1112.37 477L1007.09 344.915L1007.09 350.896L1106.27 477ZM1140.07 477L1146.64 477L1007.09 315.983L1007.09 321.518L1140.07 477ZM1184.01 477L1007.09 289.314L1007.09 294.475L1176.87 477L1184.01 477ZM1217.24 477L1225.06 477L1007.09 264.574L1007.09 269.408L1217.24 477ZM1007.09 246.035L1261.88 477L1270.51 477L1007.09 241.479L1007.09 246.035ZM1321.32 477L1007.09 219.797L1007.09 224.114L1311.71 477L1321.32 477ZM1367.88 477L1378.71 477L1007.09 199.333L1007.09 203.443L1367.88 477ZM1440 477L1440 474.095L1007.09 179.922L1007.09 183.849L1431.93 477L1440 477ZM1440 435.787L1440 427.678L1224 294.83L1224 300.775L1440 435.787ZM1440 383.235L1224 263.722L1224 269.443L1440 391.031L1440 383.235ZM1440 340.493L1224 233.806L1224 239.334L1440 348.023L1440 340.493Z" fill="#131617"/>
</svg>
