<svg width="336" height="374" viewBox="0 0 336 374" fill="none" xmlns="http://www.w3.org/2000/svg" preserveAspectRatio="none">
<path fill-rule="evenodd" clip-rule="evenodd" d="M168.394 374H167.597V373.786L167.86 222.457L168.394 374ZM161.765 222.457L154.854 261.232L161.722 222.457H161.765ZM162.315 222.457L138.363 374H139.226L162.611 222.457H162.315ZM163.959 222.457L147.023 373.996V374H147.852L164.245 222.457H163.959ZM165.04 222.457L152.046 374H151.227L164.756 222.457H165.04ZM165.542 222.457L155.372 374H156.182L165.823 222.457H165.542H165.542ZM168.138 222.457L168.394 374L168.138 222.457ZM164.342 374H163.542L167.092 222.457L164.342 374ZM166.32 222.457L159.473 374H160.275L166.599 222.457H166.32ZM168.666 161.912L172.459 0.000131944H171.66L168.424 161.912H168.666ZM164.795 161.912L143.593 0.000131944H142.748L164.541 161.912H164.795H164.795ZM165.117 161.912L147.031 0.000131944H147.861L165.367 161.912H165.117ZM165.929 161.912L152.055 0.000131944H151.236L165.682 161.912H165.929ZM166.239 161.912L155.381 0.000131944H156.19L166.483 161.912H166.239ZM167.033 161.912L160.284 0.000131944H159.481L166.789 161.912H167.033ZM163.612 161.912L154.102 108.536L163.555 161.912H163.612H163.612ZM163.954 161.912L138.371 0.000131944H139.234L164.211 161.912H163.954ZM167.37 222.457L164.342 374L167.37 222.457ZM143.585 374H142.74L163.145 222.457H163.437L143.585 374H143.585ZM172.853 222.457L193.25 374H192.405L172.561 222.457H172.853ZM173.387 222.457L196.765 374H197.627L173.683 222.457H173.387ZM174.278 222.457L181.801 264.935L174.233 222.457H174.278ZM172.04 222.457L188.968 374H188.138L171.753 222.457H172.04ZM170.959 222.457L183.944 374H184.763L171.242 222.457H170.959ZM170.456 222.457L180.618 374H179.809L170.175 222.457H170.456ZM134.757 373.999L134.757 374H133.872L134.4 371.101V373.999H134.757ZM134.4 353.079L130.157 374H129.246L134.4 349.079V353.079H134.4ZM134.4 334.584L125.403 374H124.463L134.4 331.238V334.584ZM120.47 374H119.497L134.4 316.441V319.298L120.47 374ZM115.33 374H114.316V373.999L134.4 303.927V306.412L115.33 374L115.33 374ZM109.949 374H108.89L134.4 293.174V295.364L109.949 374V374ZM104.29 374H103.178L134.4 283.804V285.756L104.29 374H104.29ZM98.3101 374H97.1367L134.4 275.536V277.298L98.3101 374ZM168.629 222.457L171.65 374H172.449L168.907 222.457H168.629ZM169.679 222.457L176.518 374H175.715L169.399 222.457H169.679ZM134.4 269.767L91.9568 374H90.7124L134.4 268.164V269.767ZM101.013 338.279L85.1703 374H83.8445L101.013 335.805V338.279V338.279ZM101.013 326.053L77.8774 374H76.4558L101.013 323.78V326.053ZM69.9915 374H68.4579L101.013 312.776V314.881L69.9915 374ZM61.4058 374H59.739L101.013 302.632V304.595L61.4058 374ZM101.013 295.062L51.9877 374H50.1638L101.013 293.224V295.062H101.013ZM41.5712 374H39.5573L101.013 284.44V286.173L41.5712 374V374ZM29.9463 374H27.7028L101.013 276.194V277.836L29.9463 374ZM101.013 269.975L16.8408 374H14.3144L101.013 268.411V269.975V269.975ZM1.89575 374H0V372.91L101.013 261.029V262.523L1.89575 374V374ZM0 358.34V355.257L50.4002 304.731V306.991L0 358.34ZM0 341.318V338.353L50.4002 292.899V295.075L0 341.318V341.318ZM50.4002 283.625L0 324.963V322.1L50.4002 281.523V283.625V283.625ZM0 309.176V306.4L50.4002 270.534V272.573L0 309.176ZM50.4002 261.866L0 293.88V291.18L50.4002 259.88V261.866V261.866ZM0 278.999V276.363L50.4002 249.51V251.449L0 278.999ZM0 264.467V261.885L0.000457764 261.884V264.467L0 264.467ZM0.000457764 250.223H0V247.682H0.000457764V250.223ZM0.000457764 236.21H0V233.703H0.000457764V236.21ZM0.000457764 222.372H0V219.89H0.000457764V222.372ZM0 208.66V206.194H0.000457764V208.66H0ZM0 195.024V192.566H0.000457764V195.024H0ZM0 181.416V178.958H0.000457764V181.416H0ZM0 167.788V165.324H0.000457764V167.788H0ZM0.000457764 154.093H0V151.61H0.000457764V154.093ZM0.000457764 140.279H0V137.773H0.000457764V140.279ZM170.885 161.912L188.98 0.000131944H188.149L170.635 161.912H170.885ZM0.000457764 126.298H0V123.758H0.000457764V126.298ZM0 112.096V109.512L0.000457764 109.512V112.096L0 112.096ZM0 97.6171V94.9801L50.4002 122.541V124.481L0 97.6171ZM169.213 161.912L176.529 8.79628e-05H175.726L168.969 161.912H169.213ZM167.88 161.912L167.606 8.79628e-05H168.404L168.122 161.912H167.88ZM50.4002 114.109L3.05176e-05 82.7991V80.0992L50.4002 112.124V114.109ZM3.05176e-05 67.5762V64.802L50.4002 101.415V103.453L3.05176e-05 67.5762V67.5762ZM171.46 161.912L193.262 4.39814e-05H192.417L171.207 161.912H171.46ZM169.518 161.912L179.819 4.39814e-05H180.629L169.763 161.912H169.518ZM170.32 161.912L184.774 4.39814e-05H183.956L170.073 161.912H170.32ZM167.336 161.912L163.551 4.39814e-05H164.351L167.578 161.912H167.336H167.336ZM0.00167847 49.0168L50.4002 90.3641V92.4658L3.05176e-05 51.8779V49.0168H0.00167847ZM3.05176e-05 35.6218V32.6553L50.4002 78.9107V81.088L3.05176e-05 35.6218ZM3.05176e-05 18.718V15.6323L50.4002 66.9936V69.2559L3.05176e-05 18.718ZM1.9213 4.39814e-05L101.013 111.475V112.969L3.05176e-05 1.06145V0H1.9213V4.39814e-05ZM14.3359 4.39814e-05H16.8622L101.013 104.023V105.586L14.3359 8.79628e-05V4.39814e-05ZM29.9654 4.39814e-05L101.013 96.1591V97.8011L27.7219 8.79628e-05H29.9654V4.39814e-05ZM171.791 161.912L196.777 4.39814e-05H197.64L172.049 161.912H171.791ZM172.445 161.912L181.105 113.01L172.39 161.912H172.445ZM39.5739 4.39814e-05H41.5878L101.013 87.8212V89.555L39.5739 8.79628e-05V4.39814e-05ZM50.1779 4.39814e-05H52.0025L101.013 78.9302V80.7693L50.1779 4.39814e-05ZM59.7535 0.00162731V4.39814e-05H61.4195L101.013 69.395V71.3588L59.7535 0.00162731ZM68.4699 0.00162731V4.39814e-05H70.0039L101.013 59.1076V61.2149L68.4699 0.00167129V0.00162731ZM76.467 4.39814e-05H77.8885L101.013 47.9332V50.2078L76.467 8.79628e-05V4.39814e-05ZM83.8549 4.39814e-05H85.1802L101.013 35.7061V38.1809L83.8549 0.00162731V4.39814e-05ZM91.9668 4.39814e-05L134.4 104.23V105.833L90.7227 4.39814e-05H91.9668ZM98.3196 4.39814e-05L134.4 96.6976V98.4603L97.1458 4.39814e-05H98.3196ZM104.3 4.39814e-05L134.4 88.2365V90.1904L103.187 4.39814e-05H104.3ZM108.898 4.39814e-05H109.958L134.4 78.6274V80.8173L108.898 4.39814e-05H108.898ZM114.324 4.39814e-05H115.338L134.4 67.575V70.0606L114.324 8.79628e-05V4.39814e-05ZM119.505 4.39814e-05H120.479L134.4 54.6827V57.5414L119.505 0V4.39814e-05ZM124.472 4.39814e-05H125.411L134.4 39.3902V42.7386L124.472 4.39814e-05H124.472ZM129.255 0.00285879V4.39814e-05H130.165L134.4 20.8861V24.8889L129.255 0.00285879ZM133.88 4.39814e-05H134.765L134.765 0.000835646H134.4V2.85488L133.88 4.39814e-05ZM201.246 4.39814e-05H202.131L201.6 2.91803V0.000835646H201.246L201.246 4.39814e-05ZM201.6 20.9369L205.847 4.39814e-05H206.757L201.6 24.937V20.9369ZM210.601 4.39814e-05H211.54L201.6 42.7787V39.4319L210.601 4.39814e-05H210.601ZM215.534 4.39814e-05H216.508L201.6 57.5768V54.7188L215.534 4.39814e-05ZM220.674 4.39814e-05H221.689L201.6 70.09V67.6048L220.674 4.39814e-05ZM226.056 4.39814e-05H227.116L201.6 80.842V78.6519L226.056 0L226.056 4.39814e-05ZM232.828 4.39814e-05L201.6 90.2127V88.2599L231.715 4.39814e-05H232.828ZM238.869 4.39814e-05L201.6 98.4802V96.7182L237.696 4.39814e-05H238.869ZM245.293 4.39814e-05L201.6 105.851V104.248L244.049 4.39814e-05H245.293ZM250.837 4.39814e-05H252.163L234.987 38.2108V35.7367L250.837 4.39814e-05ZM258.13 4.39814e-05H259.552L234.987 50.2356V47.9606L258.13 4.39814e-05ZM266.016 4.39814e-05H267.55L234.987 61.2391V59.1338L266.016 4.39814e-05ZM276.27 4.39814e-05L234.987 71.3819V69.4192L274.603 4.39814e-05H276.27ZM284.022 4.39814e-05H285.847L234.987 80.7911V78.9529L284.022 8.79628e-05L284.022 4.39814e-05ZM234.987 87.8423L294.439 4.39814e-05H296.452L234.987 89.5749V87.8423ZM308.309 4.39814e-05L234.987 97.8209V96.1793L306.065 0H308.309V4.39814e-05ZM319.172 4.39814e-05H321.699L234.987 105.604V104.041L319.172 4.39814e-05ZM336 4.39814e-05V1.10481L234.987 112.987V111.493L334.118 4.39814e-05H336H336ZM336 15.6744V18.7585L285.6 69.2841V67.023L336 15.6744ZM336 35.6612L285.6 81.1154V78.9393L336 32.6963V35.6612ZM336 51.9173L285.6 92.4932V90.3907L336 49.0534V51.9173ZM336 64.8398V67.6139L285.6 103.48V101.442L336 64.8398ZM336 80.1342V82.834L285.6 114.133V112.148L336 80.1342ZM336 95.0166V97.652L285.6 124.506V122.567L336 95.0166ZM336 276.397V279.034L285.6 251.473V249.533L336 276.397ZM336 291.216V293.915L285.6 261.89V259.906L336 291.216ZM336 306.438V309.212L285.6 272.599V270.56L336 306.438ZM336 322.136V324.999L285.6 283.651V281.549L336 322.136ZM336 338.392V341.359L285.6 295.104V292.927L336 338.392ZM336 355.297V358.382L285.6 307.021V304.759L336 355.297V355.297ZM336 374H334.066L234.987 262.54V261.046L336 372.953V374ZM321.652 374H319.127L234.987 269.992V268.429L321.652 374V374ZM308.268 374H306.025L234.987 277.854V276.212L308.268 374V374ZM296.416 374H294.403L234.987 286.193V284.46L296.416 374ZM285.813 374H283.989L234.987 295.084V293.245L285.813 374ZM276.24 374H274.573L234.987 304.619V302.656L276.239 374H276.24ZM267.523 374H265.988L234.987 314.907V312.8L267.523 374ZM259.526 374H258.105L234.987 326.081V323.806L259.526 374V374ZM252.139 374H250.814L234.987 338.308V335.834L252.139 374H252.139ZM245.272 374H244.028L201.6 269.783V268.18L245.272 374ZM238.849 374H237.675L201.6 277.315V275.553L238.849 374H238.849ZM232.809 374H231.696L201.6 285.775V283.823L232.809 374H232.809ZM227.097 374H226.038L201.6 295.387V293.198L227.097 374ZM221.671 374H220.658L201.6 306.438V303.953L221.671 374V374ZM216.492 374H215.518L201.6 319.328V316.469L216.492 374ZM211.526 374H210.586L201.6 334.622V331.274L211.526 374ZM201.6 349.124L206.743 374H205.833L201.6 353.126V349.124V349.124ZM202.118 374H201.233L201.233 373.999H201.6V371.155L202.118 374Z" fill="url(#paint0_radial_9065_13247)"/>
<defs>
<radialGradient id="paint0_radial_9065_13247" cx="0" cy="0" r="1" gradientUnits="userSpaceOnUse" gradientTransform="translate(168 187) rotate(90) scale(248.951 223.656)">
<stop stop-color="#030E35"/>
<stop offset="0.5625" stop-color="#2D6A82"/>
<stop offset="1" stop-color="#8BC2C5"/>
</radialGradient>
</defs>
</svg>
