<svg width="1440" height="240" viewBox="0 0 1440 240" fill="none" xmlns="http://www.w3.org/2000/svg" preserveAspectRatio="none">
    <g clip-path="url(#clip0_8404_151853)">
        <path fill-rule="evenodd" clip-rule="evenodd" d="M721.685 410H718.269V409.766L719.398 243.871L721.685 410ZM693.274 243.871L663.658 286.378L693.09 243.871H693.274V243.871ZM695.635 243.871L592.98 410H596.68L696.903 243.871H695.635ZM702.677 243.871L630.094 409.996V410H633.65L703.904 243.871H702.677V243.871ZM707.311 243.871L651.622 410H648.114L706.095 243.871H707.311V243.871ZM709.464 243.871L665.878 410H669.348L710.669 243.871H709.465H709.464ZM720.589 243.871L721.685 410L720.589 243.871ZM704.318 410H700.891L716.104 243.871L704.318 410ZM712.797 243.871L683.451 410H686.89L713.993 243.871H712.797V243.871ZM722.852 177.498L739.106 0.000388785H735.681L721.813 177.498H722.852ZM706.26 177.498L615.397 0.000388785H611.776L705.174 177.498H706.26H706.26ZM707.642 177.498L630.129 0.000388785H633.687L708.711 177.498H707.642ZM711.121 177.498L651.66 0.000388785H648.151L710.062 177.498H711.121V177.498ZM712.448 177.498L665.917 0.000388785H669.385L713.497 177.498H712.448H712.448ZM715.851 177.498L686.929 0.000388785H683.488L714.807 177.498H715.851ZM701.19 177.498L660.434 118.983L700.948 177.498H701.19H701.19ZM702.655 177.498L593.015 0.000388785H596.715L703.758 177.498H702.655ZM717.297 243.871L704.318 410L717.297 243.871V243.871ZM615.362 410H611.739L699.192 243.871H700.441L615.362 410H615.362ZM740.794 243.871L828.212 410H824.589L739.545 243.871H740.794H740.794ZM743.086 243.871L843.273 410H846.971L744.354 243.871H743.086H743.086ZM746.903 243.871L779.145 290.437L746.711 243.871H746.903ZM737.311 243.871L809.859 410H806.301L736.083 243.871H737.311ZM732.677 243.871L788.33 410H791.837L733.892 243.871H732.677V243.871ZM730.523 243.871L774.075 410H770.605L729.318 243.871H730.523ZM577.527 410L577.526 410H573.735L575.997 406.822V410H577.527V410ZM575.997 387.066L557.812 410H553.911L575.997 382.681V387.066H575.997ZM575.997 366.791L537.439 410H533.412L575.997 363.122V366.791V366.791ZM516.299 410H512.126L575.997 346.901V350.033L516.299 410V410ZM494.27 410H489.924V409.999L575.997 333.182V335.907L494.27 410L494.27 410ZM471.21 410H466.668L575.997 321.395V323.795L471.21 410V410ZM446.957 410H442.191L575.997 311.122V313.262L446.957 410H446.957ZM421.327 410H416.298L575.997 302.058V303.99L421.327 410ZM722.692 243.871L735.639 410H739.062L723.884 243.871H722.692ZM727.191 243.871L756.503 410H753.062L725.994 243.871H727.191V243.871ZM575.997 295.735L394.099 410H388.766L575.997 293.977V295.735V295.735ZM432.911 370.841L365.014 410H359.332L432.911 368.129V370.841V370.841ZM432.911 357.439L333.759 410H327.666L432.911 354.946V357.439ZM299.962 410H293.39L432.911 342.883V345.191L299.962 410V410ZM263.167 410H256.023L432.911 331.763V333.915L263.167 410ZM432.911 323.464L222.803 410H214.987L432.911 321.45V323.464H432.911ZM178.162 410H169.531L432.911 311.82V313.72L178.162 410.001V410ZM128.341 410H118.726L432.911 302.78V304.58L128.341 410ZM432.911 295.962L72.1747 410H61.3472L432.911 294.248V295.962V295.962ZM8.12488 410H0.000236103V408.805L432.911 286.155V287.793L8.12488 410V410ZM0.000236103 392.833V389.453L216 334.064V336.542L0.000236103 392.833ZM0.000236103 374.173V370.922L216 321.093V323.478L0.000236103 374.173V374.173ZM216 310.927L0.000236103 356.243V353.105L216 308.622V310.926V310.927ZM0.000236103 338.936V335.894L216 296.575V298.811L0.000236103 338.936ZM216 287.073L0.000236103 322.168V319.208L216 284.896V287.072V287.073ZM0.000236103 305.855V302.966L216 273.527V275.653L0.000236103 305.855ZM0.000236103 289.924V287.093L0.00223176 287.093V289.924L0.000236103 289.924ZM0.00223176 274.309H0.000236103V271.524H0.00223176V274.309ZM0.00223176 258.947H0.000236103V256.199H0.00223176V258.947ZM0.00223176 243.777H0.000236103V241.057H0.00223176V243.777ZM0.000236103 228.745V226.042H0.00223176V228.745H0.000236103ZM0.000236103 213.796V211.102H0.00223176V213.796H0.000236103ZM0.000236103 198.878V196.185H0.00223176V198.878H0.000236103ZM0.000236103 183.939V181.238H0.00223176V183.939H0.000236103ZM0.00223176 168.926H0.000236103V166.204H0.00223176V168.926ZM0.00223176 153.782H0.000236103V151.035H0.00223176V153.782ZM732.359 177.498L809.91 0.000388785H806.351L731.29 177.498H732.359ZM0.00223176 138.456H0.000236103V135.671H0.00223176V138.456ZM0.000236103 122.886V120.054L0.00223176 120.054V122.887L0.000236103 122.886ZM0.000236103 107.014V104.123L216 134.337V136.464L0.000236103 107.014ZM725.194 177.498L756.549 0.00034057H753.107L724.15 177.498H725.194ZM719.481 177.498L718.308 0.00034057H721.728L720.52 177.498H719.481ZM216 125.093L0.00032287 90.7693V87.8096L216 122.917V125.093V125.093ZM0.00032287 74.0811V71.04L216 111.178V113.412L0.00032287 74.0812V74.0811ZM734.826 177.498L828.264 0.000292356H824.642L733.739 177.498H734.826V177.498ZM726.503 177.498L770.651 0.000292356H774.12L727.553 177.498H726.503ZM729.939 177.498L791.886 0.000292356H788.378L728.88 177.498H729.939V177.498ZM717.15 177.498L700.932 0.000292356H704.357L718.19 177.498H717.15H717.15ZM0.00735104 53.7353L216 99.0625V101.367L0.00032287 56.8718V53.7353H0.00743781H0.00735104ZM0.00032287 39.0509V35.7989L216 86.5067V88.8935L0.00032287 39.0509V39.0509ZM0.00032287 20.52V17.1373L216 73.4425V75.9225L0.00032287 20.52V20.52ZM8.2343 0.000292356L432.911 122.206V123.843L0.00032287 1.16386V0.000244141H8.2343V0.000292356ZM61.4396 0.000292356H72.2666L432.911 114.036V115.75L61.4396 0.00034057V0.000292356ZM128.423 0.000292356L432.911 105.415V107.215L118.808 0.00034057H128.423V0.000292356ZM736.245 177.498L843.325 0.000292356H847.026L737.348 177.498H736.245ZM739.045 177.498L776.163 123.888L738.811 177.498H739.045ZM169.602 0.000292356H178.233L432.911 96.2749V98.1756L169.602 0.00034057V0.000292356ZM215.047 0.000292356H222.867L432.911 86.528V88.5441L215.047 0.000292356ZM256.085 0.00202809V0.000292356H263.226L432.911 76.075V78.2279L256.085 0.00202809V0.00202809ZM293.441 0.00202809V0.000292356H300.016L432.911 64.7973V67.1075L293.441 0.00207631V0.00202809ZM327.715 0.000292356H333.807L432.911 52.5473V55.0409L327.715 0.00034057V0.000292356ZM359.377 0.000292356H365.056L432.911 39.1433V41.8564L359.377 0.00202809V0.000292356V0.000292356ZM394.142 0.000292356L575.997 114.263V116.02L388.81 0.000292356H394.142V0.000292356ZM421.368 0.000292356L575.997 106.006V107.938L416.338 0.000292356H421.368V0.000292356ZM446.996 0.000292356L575.997 96.7301V98.8721L442.228 0.000292356H446.996ZM466.704 0.000292356H471.245L575.997 86.1961V88.5968L466.703 0.000292356H466.704ZM489.96 0.000292356H494.305L575.997 74.0798V76.8047L489.96 0.00034057V0.000292356ZM512.161 0.000292356H516.335L575.997 59.9465V63.0804L512.161 0.000244141V0.000292356ZM533.447 0.000292356H537.474L575.997 43.1821V46.8527L533.447 0.000292356H533.447ZM553.948 0.00337811V0.000292356H557.847L575.997 22.8968V27.2849L553.948 0.00337811V0.00337811ZM573.77 0.000292356H577.562L577.562 0.00116022H575.997V3.12992L573.77 0.000292356V0.000292356ZM862.48 0.000292356H866.273L863.996 3.19916V0.00116022H862.48L862.48 0.000292356V0.000292356ZM863.996 22.9525L882.196 0.000292356H886.097L863.996 27.3376V22.9525V22.9525ZM902.571 0.000292356H906.598L863.996 46.8967V43.2278L902.571 0.000292356H902.571ZM923.712 0.000292356H927.888L863.996 63.1193V59.9862L923.712 0.000292356ZM945.744 0.000292356H950.091L863.996 76.8369V74.1125L945.744 0.000292356V0.000292356ZM968.805 0.000292356H973.349L863.996 88.6238V86.223L968.805 0.000244141L968.805 0.000292356ZM997.828 0.000292356L863.996 98.8965V96.7559L993.06 0.000292356H997.828V0.000292356ZM1023.72 0.000292356L863.996 107.96V106.028L1018.69 0.000292356H1023.72V0.000292356ZM1051.25 0.000292356L863.996 116.04V114.283L1045.92 0.000292356H1051.25V0.000292356ZM1075.01 0.000292356H1080.69L1007.08 41.8891V39.1768L1075.01 0.000292356V0.000292356ZM1106.27 0.000292356H1112.36L1007.08 55.0714V52.5774L1106.27 0.000292356V0.000292356ZM1140.06 0.000292356H1146.64L1007.08 67.1341V64.8261L1140.06 0.000292356ZM1184.01 0.000292356L1007.08 78.2532V76.1016L1176.86 0.000292356H1184.01V0.000292356ZM1217.23 0.000292356H1225.05L1007.08 88.5681V86.5529L1217.23 0.00034057L1217.23 0.000292356ZM1007.08 96.298L1261.88 0.000292356H1270.51L1007.08 98.1973V96.298ZM1321.32 0.000292356L1007.08 107.237V105.438L1311.7 0.000244141H1321.32V0.000292356ZM1367.87 0.000292356H1378.7L1007.08 115.77V114.056L1367.87 0.000292356V0.000292356ZM1439.99 0.000292356V1.2114L1007.08 123.863V122.225L1431.93 0.000292356H1439.99H1439.99ZM1439.99 17.1835V20.5644L1223.99 75.9535V73.4747L1439.99 17.1835V17.1835ZM1439.99 39.0941L1223.99 88.9236V86.5381L1439.99 35.8438V39.0941V39.0941ZM1439.99 56.915L1223.99 101.397V99.0917L1439.99 53.7754V56.915V56.915ZM1439.99 71.0813V74.1225L1223.99 113.441V111.207L1439.99 71.0813V71.0813ZM1439.99 87.848V90.8077L1223.99 125.12V122.944L1439.99 87.848ZM1439.99 104.163V107.052L1223.99 136.491V134.365L1439.99 104.163V104.163ZM1439.99 303.003V305.893L1223.99 275.68V273.553L1439.99 303.003ZM1439.99 319.248V322.207L1223.99 287.099V284.924L1439.99 319.248ZM1439.99 335.935V338.976L1223.99 298.839V296.604L1439.99 335.935ZM1439.99 353.144V356.282L1223.99 310.954V308.65L1439.99 353.144ZM1439.99 370.965V374.217L1223.99 323.51V321.123L1439.99 370.965ZM1439.99 389.498V392.879L1223.99 336.574V334.095L1439.99 389.498V389.498ZM1439.99 410H1431.71L1007.08 287.812V286.174L1439.99 408.852V410V410ZM1378.5 410H1367.68L1007.08 295.981V294.268L1378.5 410V410ZM1321.14 410H1311.53L1007.08 304.6V302.8L1321.14 410V410ZM1270.35 410H1261.72L1007.08 313.741V311.842L1270.35 410V410ZM1224.91 410H1217.09L1007.08 323.488V321.473L1224.91 410V410ZM1183.88 410H1176.74L1007.08 333.941V331.789L1183.88 410H1183.88ZM1146.52 410H1139.94L1007.08 345.219V342.909L1146.52 410V410ZM1112.25 410H1106.16L1007.08 357.469V354.975L1112.25 410V410ZM1080.59 410H1074.91L1007.08 370.873V368.16L1080.59 410H1080.59ZM1051.16 410H1045.83L863.996 295.752V293.994L1051.16 410ZM1023.63 410H1018.6L863.996 304.009V302.077L1023.63 410H1023.63ZM997.747 410H992.98L863.996 313.284V311.143L997.747 410H997.747ZM973.269 410H968.731L863.996 323.82V321.42L973.269 410V410ZM950.016 410H945.673L863.996 335.935V333.211L950.016 410V410ZM927.82 410H923.646L863.996 350.066V346.932L927.82 410V410ZM906.534 410H902.507L863.996 366.832V363.161L906.534 410V410ZM863.996 382.73L886.037 410H882.136L863.996 387.117V382.73V382.73ZM866.215 410H862.422L862.421 409.999H863.996V406.882L866.215 410H866.215Z" fill="#EAEAEA"/>
        <line x1="4.37114e-08" y1="0.500244" x2="1440" y2="0.50037" stroke="#EAEAEA"/>
    </g>
    <defs>
        <clipPath id="clip0_8404_151853">
            <rect width="1440" height="240" fill="white" transform="matrix(-1 0 0 1 1440 0.000244141)"/>
        </clipPath>
    </defs>
</svg>
