<?xml version="1.0" standalone="no"?>
<!DOCTYPE svg PUBLIC "-//W3C//DTD SVG 20010904//EN"
 "http://www.w3.org/TR/2001/REC-SVG-20010904/DTD/svg10.dtd">
<svg version="1.0" xmlns="http://www.w3.org/2000/svg"
 width="180.000000pt" height="180.000000pt" viewBox="0 0 180.000000 180.000000"
 preserveAspectRatio="xMidYMid meet">
<metadata>
Created by potrace 1.14, written by Peter Selinger 2001-2017
</metadata>
<g transform="translate(0.000000,180.000000) scale(0.100000,-0.100000)"
fill="#000000" stroke="none">
<path d="M615 1704 c-99 -20 -173 -61 -248 -135 -80 -79 -109 -137 -136 -269
-35 -170 -70 -273 -140 -415 -39 -77 -68 -141 -67 -142 4 -4 70 23 146 61 36
18 100 45 142 60 l77 28 93 121 c51 66 102 134 113 151 10 17 22 33 25 36 3 3
18 23 35 45 16 21 37 47 46 56 9 9 30 37 47 62 18 25 42 54 54 64 13 10 41 38
62 63 21 25 61 69 89 98 27 29 48 54 46 56 -2 2 -22 12 -44 21 -112 47 -234
61 -340 39z"/>
<path d="M1119 1523 c-13 -17 -13 -17 6 -3 11 8 22 16 24 17 2 2 0 3 -6 3 -6
0 -17 -8 -24 -17z"/>
<path d="M1104 1457 c-44 -46 -85 -87 -91 -91 -28 -16 -10 12 41 69 30 33 53
61 51 63 -3 4 -81 -78 -116 -122 -12 -16 -32 -38 -43 -50 -35 -37 -124 -155
-94 -126 5 5 127 149 135 159 2 2 6 1 9 -2 6 -6 -53 -91 -88 -128 -18 -19 -58
-70 -83 -105 -11 -15 -37 -48 -58 -72 -21 -24 -36 -46 -34 -49 3 -2 47 9 98
26 52 16 112 32 134 36 71 10 190 54 203 75 7 11 19 42 28 68 9 26 38 92 65
146 57 113 58 108 -32 159 l-47 27 -78 -83z"/>
<path d="M919 1513 c-13 -16 -12 -17 4 -4 9 7 17 15 17 17 0 8 -8 3 -21 -13z"/>
<path d="M1327 1443 c-4 -3 -7 -11 -7 -17 0 -6 5 -5 12 2 6 6 9 14 7 17 -3 3
-9 2 -12 -2z"/>
<path d="M1293 1370 c-11 -22 -17 -40 -14 -40 9 0 43 71 38 77 -3 2 -13 -14
-24 -37z"/>
<path d="M1423 1362 c-42 -95 -53 -126 -53 -140 1 -9 15 16 32 56 17 40 33 70
35 68 3 -2 -14 -48 -36 -102 -23 -53 -41 -101 -41 -106 0 -4 8 -8 18 -8 24 0
81 -37 89 -58 4 -9 17 -33 29 -52 33 -51 37 -85 11 -107 -19 -17 -20 -17 -14
0 7 19 -3 23 -20 6 -8 -8 -13 -5 -18 10 -12 40 -30 48 -92 44 -45 -3 -62 -9
-76 -26 -10 -12 -15 -15 -11 -7 4 8 3 12 -1 7 -12 -10 -17 -50 -6 -43 5 3 7
-3 4 -15 -4 -13 -8 -17 -13 -9 -5 8 -9 4 -13 -9 -3 -12 -1 -19 4 -15 15 9 10
-20 -8 -45 -9 -14 -12 -21 -6 -18 7 5 9 0 6 -13 -3 -11 -10 -17 -17 -13 -6 4
-5 -1 3 -11 12 -14 12 -17 1 -14 -9 2 -17 -16 -25 -54 -7 -32 -10 -58 -7 -58
2 0 0 -6 -5 -13 -6 -6 -10 -28 -10 -48 0 -19 -3 -41 -8 -49 -6 -9 -4 -11 6 -5
11 6 12 5 2 -6 -14 -14 -18 -33 -5 -25 4 2 6 -23 4 -56 -5 -76 15 -173 43
-206 18 -21 30 -25 76 -25 93 1 156 39 208 123 48 79 68 160 72 293 3 101 30
176 81 228 66 67 136 192 132 237 -1 12 -2 30 -3 40 -2 26 -66 99 -115 130
-89 56 -218 122 -228 116 -6 -4 -8 -2 -4 4 3 6 3 13 -2 16 -4 2 -13 -7 -19
-22z"/>
<path d="M805 1339 c-4 -6 -5 -12 -2 -15 2 -3 7 2 10 11 7 17 1 20 -8 4z"/>
<path d="M755 1280 c-3 -5 -1 -10 4 -10 6 0 11 5 11 10 0 6 -2 10 -4 10 -3 0
-8 -4 -11 -10z"/>
<path d="M1232 1241 c-6 -17 -9 -31 -6 -31 7 0 25 52 20 57 -2 2 -8 -10 -14
-26z"/>
<path d="M1200 1165 c-7 -20 -10 -39 -7 -42 3 -3 10 12 16 33 14 49 7 56 -9 9z"/>
<path d="M1058 905 c-3 -3 -17 -8 -32 -11 -14 -2 -81 -23 -148 -45 -68 -23
-127 -42 -133 -43 -27 -5 -182 -59 -207 -72 -15 -8 -40 -31 -55 -51 -15 -21
-30 -40 -34 -43 -3 -3 -52 -68 -110 -145 -104 -138 -155 -213 -148 -219 2 -1
20 -13 39 -26 19 -13 37 -27 40 -31 3 -3 34 -24 70 -46 143 -86 229 -105 329
-71 30 10 59 22 65 27 6 5 51 30 100 55 83 44 118 54 209 56 16 0 16 2 -2 28
-43 59 -51 95 -46 214 4 110 21 198 64 343 12 38 21 73 21 77 0 9 -14 11 -22
3z"/>
<path d="M1106 898 c-2 -7 -11 -34 -19 -60 -8 -27 -11 -48 -7 -48 4 0 13 21
20 48 6 26 14 53 16 60 2 6 1 12 -2 12 -2 0 -6 -6 -8 -12z"/>
<path d="M1131 883 c-18 -46 -30 -93 -23 -93 8 0 44 111 38 117 -2 2 -8 -9
-15 -24z"/>
<path d="M1101 764 c0 -11 3 -14 6 -6 3 7 2 16 -1 19 -3 4 -6 -2 -5 -13z"/>
<path d="M1060 737 c0 -9 0 -19 0 -22 0 -3 -4 -16 -10 -30 -5 -14 -6 -25 -1
-25 11 0 26 79 17 87 -3 4 -6 -1 -6 -10z"/>
<path d="M1040 650 c-13 -43 -27 -160 -18 -160 4 0 8 15 8 33 0 17 5 49 11 70
6 21 8 44 5 50 -2 7 -5 10 -6 7z"/>
<path d="M81 555 c-35 -14 -67 -28 -71 -32 -4 -4 3 -30 15 -57 l22 -50 40 55
c57 78 76 109 67 108 -5 0 -38 -11 -73 -24z"/>
<path d="M1015 471 c-3 -5 -2 -12 3 -15 5 -3 9 1 9 9 0 17 -3 19 -12 6z"/>
</g>
</svg>
