<?xml version="1.0" encoding="UTF-8"?>
<!DOCTYPE svg PUBLIC "-//W3C//DTD SVG 1.1//EN" "http://www.w3.org/Graphics/SVG/1.1/DTD/svg11.dtd">
<!-- Creator: CorelDRAW -->
<svg xmlns="http://www.w3.org/2000/svg" xml:space="preserve" width="12.4032mm" height="22.5079mm" version="1.1" style="shape-rendering:geometricPrecision; text-rendering:geometricPrecision; image-rendering:optimizeQuality; fill-rule:evenodd; clip-rule:evenodd"
viewBox="0 0 140.45 254.87"
 xmlns:xlink="http://www.w3.org/1999/xlink"
 xmlns:xodm="http://www.corel.com/coreldraw/odm/2003">
 <defs>
  <style type="text/css">
   <![CDATA[
    .fil0 {fill:#4AA6AB;fill-rule:nonzero}
   ]]>
  </style>
 </defs>
 <g id="Слой_x0020_1">
  <metadata id="CorelCorpID_0Corel-Layer"/>
  <path class="fil0" d="M117.79 253.81c0.25,0.03 0.45,-0.06 0.61,-0.26 0.85,0.17 1.03,1.54 2.2,1.14 2.6,0.72 3.96,-0.87 5.1,-2.8 3.18,-5.41 5.42,-11.22 7.3,-17.15 6.72,-21.27 8.66,-42.88 6.77,-65 -3.3,-38.62 -19.19,-71.49 -44.28,-100.25 -11.63,-13.33 -25.42,-24.37 -39.74,-34.77 -8.42,-6.11 -17.18,-11.69 -25.81,-17.49 -0.4,-0.07 -0.8,-0.13 -1.21,-0.21 -0.24,-0.39 -0.63,-0.76 -0.67,-1.17 0,0 0,0 0,-0.01 -0.02,-0.32 0.44,-0.36 0.76,-0.15 4.12,-0.24 8.13,0.38 12.11,1.22 2.73,0.57 5.41,0.93 8.19,0.47 5.85,1.28 10.11,-0.95 12.01,-6.08 -9.18,-7.52 -20.25,-9.04 -31.64,-9.67 -4.24,-0.24 -8.44,-0.76 -12.66,-1.22 -10.09,-1.1 -8.7,-0.38 -13.75,6.19 -1.13,1.47 -1.9,3.17 -2.49,4.93 -0.22,0.65 -0.36,1.26 -0.01,1.89 -1.19,1.74 -0.36,3.28 0.53,4.74 2.65,4.33 5.34,8.62 8.03,12.93 0,1.22 0.7,2.09 1.44,2.94 -0.05,1.22 0.67,2.09 1.34,2.98 -0.17,0.86 0.42,1.48 0.7,2.2 3.75,9.7 6.34,19.7 7.2,30.13 0.06,0.79 0.19,1.56 0.29,2.34 0.11,0.93 0.23,1.99 1.28,2.18 0.8,0.15 1.72,-0.53 1.95,-1.19 1.03,-2.89 3.66,-4.71 4.9,-7.42 0.55,-1.2 0.56,-2.53 0.55,-3.87 -0.04,-10.35 -1.92,-20.39 -4.85,-30.24 -0.26,-0.88 -0.67,-1.74 -0.74,-2.64 -0.08,-1.05 0.77,-1.22 1.64,-1.16 0.4,0.97 1.13,1.41 2.17,1.38 0.54,0.81 1.13,1.55 2.26,1.48 0.01,0.27 0.16,0.37 0.41,0.3 0.49,0.79 1.07,1.44 2.12,1.43 0.45,0.46 0.85,0.99 1.37,1.37 5.74,4.13 11.54,8.15 17.23,12.34 5.17,3.8 10.2,7.76 15.29,11.65 1.22,1.19 2.38,2.43 3.63,3.56 12.15,11.12 22.74,23.54 31.41,37.53 3.09,5 6.03,10.09 9.03,15.14 -0.01,1.28 0.77,2.16 1.54,3.05 -0.04,1.23 0.69,2.07 1.41,2.93 -0.12,1.17 0.64,1.94 1.23,2.78 -0.15,0.77 0.19,1.32 0.74,1.79 -0.04,0.28 0.07,0.49 0.32,0.62 -0.15,0.85 0.41,1.48 0.67,2.19 1.25,3.55 3.14,6.85 3.94,10.56 0.43,0.13 1.09,0.99 0.94,-0.43 -0.1,-0.95 0.11,-1.12 0.42,-1.02 0.27,0.09 0.61,0.38 0.91,0.58 3.59,11.34 5.74,22.98 7.13,34.79 0.03,1.11 0.06,2.22 0.08,3.33 0.16,6.62 0.31,13.26 0.48,19.87 -0.17,0.22 -0.23,0.45 -0.21,0.68 0.02,0.16 0.06,0.31 0.15,0.46 -0.27,0.37 -0.28,0.74 -0.05,1.12 -0.28,0.36 -0.29,0.74 -0.05,1.12 -0.3,0.36 -0.31,0.73 -0.06,1.12 -0.3,0.36 -0.33,0.73 -0.08,1.12 -0.31,0.35 -0.34,0.72 -0.08,1.11l-0 0.01c-0.31,0.34 -0.34,0.72 -0.09,1.09l0 0.02c-0.06,0.35 -0.09,0.72 -0.11,1.09l-0 0.04c-0.31,0.34 -0.35,0.7 -0.11,1.09l-0 0.04c-0.31,0.34 -0.35,0.7 -0.11,1.09l-0 0.04c0,0 -0,0.01 -0,0.01 0,0 0,-0.01 0,-0.01 -0.32,0.34 -0.36,0.7 -0.12,1.09l0 0.02c-0.32,0.34 -0.36,0.7 -0.12,1.09l-0 0.01c-0.32,0.35 -0.36,0.72 -0.13,1.11 -0.61,3.4 -1.22,6.79 -1.83,10.18 0.24,1.86 -0.42,3.6 -0.83,5.37 -0.21,0.06 -0.4,0.06 -0.59,0.03 -0.29,-0.04 -0.54,-0.16 -0.78,-0.39 -0.45,1.3 -1,2.58 -0.82,3.99 0.09,0.42 0.12,0.85 -0.02,1.28 0.01,-0.42 0.02,-0.85 0.02,-1.28 -0.23,0.39 -0.4,0.78 -0.09,1.17 -0.54,0.45 -0.69,1.02 -0.61,1.69 -0.35,0.28 -0.48,0.62 -0.27,1.03 -0.28,0.37 -0.44,0.75 -0.25,1.2 -0.16,0.16 -0.25,0.35 -0.23,0.59 -0.66,1.2 -1.05,2.46 -1.13,3.82 -0.42,0.87 -0.88,1.73 -0.81,2.73 -0.47,0.46 -0.52,1.07 -0.61,1.66 -1.68,3.42 -2.71,7.12 -5.15,10.38 1.4,0.25 1.98,1.67 3.34,1.17zm-87.46 -223.79c0,0.01 0,0.01 0.01,0.02 0.01,-0.01 0,-0.01 0,-0.01 0.01,0.01 0,0.02 0,0.02 0,0 -0,-0.01 -0,-0.01 -0.01,0 -0.02,0.01 -0.02,0.02 -0,-0.02 0.01,-0.03 0.01,-0.04zm100.57 176.9c0.02,-0.08 0.05,-0.17 0.07,-0.26 0,0.02 0,0.05 0,0.07 -0.01,0.07 -0.01,0.15 -0.03,0.23 -0.01,-0.01 -0.02,-0.02 -0.05,-0.04zm-1.24 -12.27c0.01,-0.01 0.01,0 0.02,-0 0.03,0.01 0.06,0 0.09,0.01l0.1 0.03 -0.2 -0.03c-0.01,0.01 -0,0.01 -0.01,0.02 0.01,-0.01 0,-0.01 -0,-0.02zm1.56 12.53c-0.09,-0.07 -0.18,-0.14 -0.25,-0.21 0.01,-0.08 0.01,-0.15 0.02,-0.23 0.01,0.16 0.08,0.31 0.23,0.43zm-0.16 -0.94c0.01,-0.09 0.02,-0.18 0.04,-0.26 0.01,-0.01 0,-0.01 0.01,-0.02 -0.02,0.09 -0.04,0.19 -0.05,0.28zm-8.17 42.43c0.01,0.01 0,0.02 0.01,0.03 0,0 -0,0.01 -0,0.01 -0.01,0 -0.01,0.02 -0.02,0.02 -0,-0.02 0.01,-0.04 0.02,-0.07zm0.74 -1.52c0.02,-0.01 0.04,-0.02 0.04,-0.04 -0.02,0.01 -0.03,0.04 -0.04,0.04zm0.21 -16.89c0.06,0.05 0.14,0.09 0.23,0.12 -0.04,0.04 -0.08,0.07 -0.12,0.11 -0.03,-0.08 -0.07,-0.15 -0.1,-0.23zm-1.13 2.77c-0.02,0.14 -0.09,0.28 -0.2,0.4 0,0 0,0 -0,-0.01 0.1,-0.13 0.17,-0.25 0.21,-0.39z"/>
 </g>
</svg>
