<?xml version="1.0" encoding="UTF-8"?>
<!DOCTYPE svg PUBLIC "-//W3C//DTD SVG 1.1//EN" "http://www.w3.org/Graphics/SVG/1.1/DTD/svg11.dtd">
<!-- Creator: CorelDRAW -->
<svg xmlns="http://www.w3.org/2000/svg" xml:space="preserve" width="28.5576mm" height="28.5579mm" version="1.1" style="shape-rendering:geometricPrecision; text-rendering:geometricPrecision; image-rendering:optimizeQuality; fill-rule:evenodd; clip-rule:evenodd"
viewBox="0 0 224.04 224.04"
 xmlns:xlink="http://www.w3.org/1999/xlink"
 xmlns:xodm="http://www.corel.com/coreldraw/odm/2003">
 <defs>
  <style type="text/css">
   <![CDATA[
    .str0 {stroke:black;stroke-width:1.67;stroke-linecap:round;stroke-linejoin:round;stroke-miterlimit:10}
    .str2 {stroke:#878787;stroke-width:1.67;stroke-linecap:round;stroke-linejoin:round;stroke-miterlimit:10}
    .str1 {stroke:black;stroke-width:2.13;stroke-linecap:round;stroke-linejoin:round;stroke-miterlimit:10}
    .fil2 {fill:none;fill-rule:nonzero}
    .fil3 {fill:black;fill-rule:nonzero}
    .fil0 {fill:#4AA6AB;fill-rule:nonzero}
    .fil1 {fill:white;fill-rule:nonzero}
   ]]>
  </style>
 </defs>
 <g id="Слой_x0020_1">
  <metadata id="CorelCorpID_0Corel-Layer"/>
  <g id="_105553239934976">
   <path class="fil0" d="M112.02 179.58c-37.32,0 -67.57,-30.25 -67.57,-67.57 0,-37.31 30.25,-67.57 67.57,-67.57 37.31,0 67.57,30.25 67.57,67.57 0,37.32 -30.25,67.57 -67.57,67.57zm0 -154.75c-48.15,0 -87.19,39.03 -87.19,87.19 0,48.16 39.04,87.19 87.19,87.19 48.16,0 87.19,-39.04 87.19,-87.19 0,-48.15 -39.03,-87.19 -87.19,-87.19z"/>
   <path class="fil1" d="M55.92 54.32l56.1 29.22 56.1 -29.22c1.02,-0.51 2.11,0.58 1.6,1.6l-29.22 56.1 29.22 56.1c0.51,1.03 -0.58,2.11 -1.6,1.6l-56.1 -29.22 -56.1 29.22c-1.02,0.51 -2.11,-0.58 -1.6,-1.6l29.22 -56.1 -29.22 -56.1c-0.51,-1.03 0.58,-2.12 1.6,-1.6z"/>
   <path class="fil2 str0" d="M55.76 54.15l56.26 29.3 56.26 -29.3c1.03,-0.52 2.12,0.58 1.61,1.61l-29.3 56.26 29.3 56.26c0.52,1.03 -0.58,2.12 -1.61,1.6l-56.26 -29.3 -56.26 29.3c-1.03,0.52 -2.12,-0.58 -1.61,-1.6l29.3 -56.26 -29.3 -56.26c-0.52,-1.03 0.58,-2.12 1.61,-1.61z"/>
   <polygon class="fil3" points="169.5,169.5 112.02,112.02 140.5,112.02 "/>
   <polygon class="fil2 str1" points="169.71,169.71 111.81,111.81 140.5,111.81 "/>
   <polygon class="fil3" points="112.02,112.02 54.54,169.5 112.02,140.51 "/>
   <polygon class="fil2 str1" points="112.23,111.81 54.33,169.71 112.23,140.5 "/>
   <polygon class="fil3" points="112.02,112.02 54.54,54.54 83.54,112.02 "/>
   <polygon class="fil2 str1" points="112.23,112.23 54.33,54.33 83.54,112.23 "/>
   <polygon class="fil3" points="112.02,112.02 169.5,54.54 112.02,83.54 "/>
   <polygon class="fil2 str1" points="111.81,112.23 169.71,54.33 111.8,83.54 "/>
   <path class="fil1" d="M2.12 110.47l82.4 -25.96 25.96 -82.4c0.49,-1.49 2.6,-1.49 3.09,0l25.96 82.4 82.4 25.96c1.49,0.49 1.49,2.6 0,3.09l-82.4 25.96 -25.96 82.4c-0.49,1.49 -2.6,1.49 -3.09,0l-25.96 -82.4 -82.4 -25.96c-1.49,-0.49 -1.49,-2.6 0,-3.09z"/>
   <path class="fil2 str2" d="M1.95 110.47l82.52 -26 26 -82.52c0.5,-1.49 2.61,-1.49 3.1,0l26 82.52 82.52 26c1.49,0.49 1.49,2.6 0,3.1l-82.52 26 -26 82.52c-0.49,1.49 -2.6,1.49 -3.1,0l-26 -82.52 -82.52 -26c-1.49,-0.5 -1.49,-2.6 0,-3.1zm125.48 1.55c0,8.51 -6.9,15.41 -15.41,15.41 -8.51,0 -15.41,-6.9 -15.41,-15.41 0,-8.51 6.9,-15.41 15.41,-15.41 8.51,0 15.41,6.9 15.41,15.41z"/>
  </g>
 </g>
</svg>
