<?xml version="1.0" encoding="UTF-8"?>
<!DOCTYPE svg PUBLIC "-//W3C//DTD SVG 1.1//EN" "http://www.w3.org/Graphics/SVG/1.1/DTD/svg11.dtd">
<!-- Creator: CorelDRAW -->
<svg xmlns="http://www.w3.org/2000/svg" xml:space="preserve" width="138.265mm" height="86.0118mm" version="1.1" style="shape-rendering:geometricPrecision; text-rendering:geometricPrecision; image-rendering:optimizeQuality; fill-rule:evenodd; clip-rule:evenodd"
viewBox="0 0 28666.3 17832.74"
 xmlns:xlink="http://www.w3.org/1999/xlink"
 xmlns:xodm="http://www.corel.com/coreldraw/odm/2003">
 <defs>
  <style type="text/css">
   <![CDATA[
    .fil0 {fill:#F3F6F7;fill-rule:nonzero}
   ]]>
  </style>
 </defs>
 <g id="Слой_x0020_1">
  <metadata id="CorelCorpID_0Corel-Layer"/>
  <path class="fil0" d="M1981.67 14144.65c0,0 115.27,-79.8 239.42,-53.22 124.11,26.62 230.45,53.22 274.84,53.22 44.26,0 292.52,-124.11 354.64,-124.11 61.99,0 159.54,-150.71 177.29,-186.2 17.71,-35.47 79.78,-88.65 124.11,-97.55 44.33,-8.87 88.63,-35.39 124.11,-88.67 35.47,-53.16 79.8,-88.61 106.42,-88.61 26.58,0 79.74,97.53 106.4,0 26.54,-97.55 53.18,-177.33 88.65,-230.49 35.39,-53.22 168.43,-266 239.34,-336.91 70.91,-70.99 434.42,-301.41 505.34,-336.93 70.93,-35.43 425.54,-97.51 425.54,-97.51l257.15 0c0,0 -8.89,-17.69 97.49,-44.31 106.36,-26.6 141.85,-79.82 177.31,0 35.47,79.78 53.2,124.11 115.25,124.11 62.07,0 115.25,-53.2 141.85,-97.49 26.58,-44.35 -35.47,-150.77 70.89,-212.8 106.4,-62.1 203.99,-70.91 230.55,-133 26.6,-62.05 70.93,-159.54 106.38,-177.29 35.45,-17.75 106.36,17.75 177.29,0 70.93,-17.75 62.14,-115.25 97.53,-141.88 35.47,-26.6 159.58,-53.18 106.4,-88.65 -53.18,-35.47 -62.05,-115.23 -26.6,-159.58 35.47,-44.31 106.4,-79.76 195.06,-115.23 88.63,-35.47 203.89,-97.51 292.54,-88.7 88.67,8.89 239.42,62.05 372.4,141.88 132.96,79.8 124.09,177.33 265.96,239.36 141.83,62.1 230.49,17.75 292.58,8.89 62.01,-8.89 132.96,-115.23 265.98,-97.51 132.94,17.71 469.83,62.01 514.18,26.58 44.31,-35.47 53.18,-70.93 150.71,-70.93 97.53,0 177.33,44.35 257.07,-8.92 79.82,-53.18 177.35,-62.01 150.79,-132.94 -26.62,-70.93 -97.55,-141.88 -97.55,-257.13 0,-115.23 35.45,-212.74 44.29,-283.67 8.89,-70.95 -26.54,-88.28 -17.71,-150.54 8.87,-62.22 8.94,-53.41 75.43,-62.22 66.43,-8.96 75.32,-62.1 75.32,-115.27 0,-53.18 -44.39,-88.65 0,-97.53 44.31,-8.87 70.89,8.87 124.04,35.43 53.22,26.62 186.2,30.87 221.7,-37.75 35.49,-68.63 79.78,-112.95 35.49,-166.13 -44.39,-53.18 -62.12,-141.83 -88.74,-159.58 -26.56,-17.71 -8.79,-53.18 -79.74,0 -70.97,53.2 -115.23,-11.9 -133,-28.07 -17.71,-16.28 8.89,-10.37 -88.65,0 -97.51,10.37 -106.42,13.77 -159.56,-10.1 -53.22,-23.88 -124.13,-121.39 -168.48,-103.71 -44.35,17.73 -79.8,31.2 -133.02,-2.16 -53.14,-33.28 -150.67,-28.69 -221.61,0 -70.93,28.82 -319.16,64.25 -319.16,64.25 0,0 53.18,239.36 -97.55,274.79 -150.65,35.49 -194.99,35.49 -274.79,17.75 -79.82,-17.75 -195.06,-115.23 -203.93,-150.69 -8.87,-35.49 -35.43,-97.51 -62.05,-141.85 -26.6,-44.37 -115.25,-70.93 -115.25,8.85 0,79.8 26.6,88.67 -17.71,150.69 -44.33,62.1 -79.82,26.64 -97.53,106.44 -17.77,79.74 -44.35,150.71 -70.97,177.27 -26.54,26.62 -248.21,124.15 -310.27,124.15 -62.03,0 -212.76,70.91 -310.31,79.78 -97.53,8.87 -88.65,26.97 -186.18,35.66 -97.51,8.69 -159.58,79.97 -212.72,0 -53.26,-79.97 -79.78,-142.04 -203.97,-186.37 -124.09,-44.31 -159.58,-124.15 -283.67,-79.78 -124.11,44.31 -186.2,0 -230.49,-79.82 -44.37,-79.76 -177.33,-168.43 -124.15,-212.76 53.22,-44.33 115.21,-95.25 124.15,-211.62 8.85,-116.42 0,-89.79 -35.49,-249.4 -35.43,-159.56 -26.6,-195.03 -106.4,-274.79 -79.78,-79.82 -88.65,-141.9 -124.11,-195.08 -35.47,-53.2 -159.56,-53.2 -195.03,-53.2 -35.49,0 -70.93,-53.2 -79.78,-115.23 -8.89,-62.1 115.25,-62.1 -8.89,-62.1 -124.09,0 -195.01,53.22 -301.46,79.78 -106.36,26.62 -212.7,62.1 -212.7,17.75 0,-44.31 44.26,-35.43 88.63,-97.53 44.31,-62.03 115.23,-124.09 132.98,-186.18 17.71,-62.01 35.47,-150.75 -44.31,-150.75 -79.84,0 -212.8,62.12 -212.8,62.12 0,0 17.75,-88.65 44.33,-115.25 26.58,-26.6 106.38,-79.8 106.38,-79.8 0,0 62.1,-88.65 -8.87,-97.49 -70.93,-8.89 -106.34,44.26 -150.71,79.76 -44.31,35.47 -257.11,212.78 -292.58,239.4 -35.41,26.58 -132.98,62.01 -132.98,62.01 0,0 17.79,-97.49 35.45,-132.98 17.73,-35.45 70.95,-115.21 115.27,-150.71 44.35,-35.47 159.56,-37.42 168.45,-98.52 8.85,-61.06 35.45,-87.64 8.85,-140.84 -26.6,-53.18 -17.75,-79.8 -62.05,-115.27 -44.35,-35.45 -97.53,-115.23 -70.91,-159.56 26.56,-44.31 -203.93,106.34 -265.96,88.65 -62.12,-17.75 -115.27,-186.18 -239.42,-177.29 -124.07,8.83 -115.19,79.76 -168.45,88.63 -53.14,8.87 -141.81,-9.54 -195.03,-89.03 -53.16,-79.43 -106.38,-123.75 -150.69,-114.86 -44.35,8.81 -88.67,-8.89 -62.05,53.16 26.56,62.1 70.87,44.35 70.87,133 0,88.63 -17.73,150.71 -53.16,150.71 -35.45,0 -70.93,62.05 -106.34,-8.87 -35.52,-70.89 8.83,-53.2 8.83,-115.23 0,-62.05 8.83,-88.67 -8.83,-124.13 -17.77,-35.47 -70.95,-64.29 -115.3,-89.77 -44.35,-25.48 -79.8,-25.48 -133,-96.41 -53.18,-70.91 26.6,-133.54 -106.34,-102.21 -133.04,31.31 -195.03,40.14 -195.03,40.14 0,0 -133.06,-8.19 -133.06,-48.47 0,-40.16 -17.71,-31.29 -44.22,-119.98 -26.7,-88.61 106.34,-44.26 -26.7,-124.09 -132.96,-79.8 -106.36,17.73 -106.36,79.82 0,61.97 88.67,53.14 0,61.97 -88.65,8.89 -79.78,0 -97.53,-26.54 -17.73,-26.62 -62.07,-17.75 -106.36,-88.67 -44.35,-70.99 -8.85,-79.78 -79.82,-150.69 -70.91,-70.97 -195.01,-8.92 -195.01,53.18 0,62.05 8.85,177.31 0,230.49 -8.83,53.22 0,186.18 0,239.4 0,53.2 -7.9,115.23 -3.94,177.29 3.94,62.07 -4.89,212.78 48.25,212.78 53.18,0 106.36,35.45 150.71,53.2 44.37,17.71 159.62,88.65 88.65,106.32 -70.91,17.79 -168.43,8.96 -168.43,62.12 0,53.2 53.2,115.23 -8.85,115.23 -62.07,0 -97.53,-62.03 -159.6,-53.14 -62.05,8.83 -150.71,88.63 -186.18,106.36 -35.41,17.75 -168.45,17.75 -168.45,17.75 0,0 -150.69,79.78 -203.91,159.58 -53.16,79.78 -150.69,132.94 -265.96,177.31 -20.82,8 -378.48,218.15 -397.84,225.18 -235.42,484.82 -458.78,578.22 -227.61,1012.91l15.57 238.35 35.66 245.79 212.68 324.51 301.64 140.03c63.94,9.21 121.97,11.9 121.97,11.9 0,0 212.76,-17.71 239.34,-35.43 26.66,-17.75 141.88,-106.4 177.35,-133 35.49,-26.58 44.31,-70.93 79.76,-35.45 35.52,35.45 70.97,53.2 70.97,132.96l0 159.54c0,0 17.73,106.44 44.31,133.04 26.64,26.6 -17.75,150.73 35.45,221.66 53.2,70.91 62.1,70.91 79.84,203.89 17.66,133 53.16,265.96 44.26,336.89 -8.85,70.91 -8.85,186.16 -53.14,221.66 -44.37,35.45 -88.65,44.31 -97.51,141.83 -8.92,97.51 -8.92,203.93 -8.92,239.38 0,35.45 17.77,186.18 0,239.38 -17.75,53.16 -53.18,159.58 -97.53,168.43 -44.31,8.92 -106.4,62.07 -186.18,115.27 -79.76,53.14 -115.25,141.81 -115.25,141.81 0,0 35.49,79.82 97.51,141.92 62.07,62.03 141.92,141.81 177.35,141.81 35.47,0 44.35,-26.6 133.02,17.71 88.63,44.37 106.38,8.92 150.65,44.37 44.37,35.45 35.54,-17.75 62.05,97.51 26.62,115.27 97.55,168.45 159.66,168.45 62.03,0 26.54,62.05 79.78,70.93 53.14,8.85 124.07,0 124.07,0zm7925.92 -3883.17c66.49,79.8 146.27,186.2 79.8,212.76 -66.49,26.62 -39.93,-199.45 -66.49,26.62 -26.6,226.07 186.14,234.43 186.14,234.43 0,0 146.31,-61.56 212.8,-61.56 66.47,0 93.09,61.56 93.09,61.56 0,0 0,54.09 -66.49,102.65 -66.51,48.6 -265.96,141.69 -345.76,141.69 -79.78,0 -186.18,39.85 -252.67,66.45 -66.53,26.66 -197.75,-13.27 -211.95,66.49 -14.1,79.76 -92.22,159.6 0,199.49 92.26,39.91 185.35,146.31 225.24,146.31 39.93,0 186.16,13.23 265.96,0 79.78,-13.29 252.67,5.83 252.67,5.83 0,0 172.91,-72.32 133,-125.52 -39.89,-53.26 -106.42,-13.31 -172.87,-26.62 -66.49,-13.27 -26.62,-119.73 26.6,-132.98 53.18,-13.29 78.43,-13.29 152.26,13.25 73.81,26.68 140.28,26.68 220.08,26.68 79.82,0 186.2,-53.22 252.65,0 66.51,53.16 172.91,119.67 93.11,159.5 -79.78,39.93 -79.78,106.46 -93.11,172.89 -13.29,66.55 -53.24,-39.87 -13.29,66.55 39.91,106.36 43.66,119.63 134.89,119.63 91.18,0 157.69,-39.87 197.58,0 39.89,39.95 -13.35,79.8 0,172.89 13.31,93.09 -49.59,133.04 15.11,226.13 64.62,93.05 104.58,252.63 171.07,345.72 66.45,93.09 119.71,252.67 226.05,319.16 106.38,66.51 226.09,226.05 438.87,252.67 212.76,26.56 199.45,119.67 305.87,106.4 106.38,-13.31 212.78,0 212.78,-66.49 0,-66.53 -53.22,-159.6 0,-159.6 53.14,0 106.38,66.47 186.14,106.42 79.84,39.83 226.09,119.67 212.8,212.76 -13.27,93.09 -13.27,146.27 66.49,172.87 79.78,26.58 61.99,24.63 79.78,26.58 119.71,13.35 226.03,0 226.03,0 0,0 -66.43,66.53 0,133.02 66.57,66.47 106.4,159.56 186.2,212.72 79.78,53.24 119.71,106.42 186.16,159.64 66.55,53.18 26.66,66.47 133.02,79.74 106.4,13.35 186.2,114.3 279.27,110.34 93.09,-3.9 119.67,9.35 332.47,62.57 212.76,53.18 292.58,79.8 372.36,132.94 79.76,53.22 252.67,119.75 292.56,119.75 39.89,0 252.65,332.41 345.74,385.63 93.09,53.18 132.94,146.29 265.94,212.76 132.98,66.49 359.09,305.85 412.25,359.03 53.22,53.24 212.8,146.31 292.64,226.11 79.74,79.78 305.79,186.18 372.32,305.83 66.49,119.69 146.29,412.27 252.67,505.36 106.4,93.07 -13.31,26.6 186.16,172.87 199.49,146.27 465.47,319.16 492.07,385.63 26.6,66.53 0,146.31 106.32,239.42 106.44,93.09 186.18,146.23 252.71,239.34 66.49,93.07 -39.89,106.42 252.67,265.96 292.54,159.62 172.89,0 172.89,0l252.65 -638.28c0,0 332.43,-39.91 385.65,-13.33 53.22,26.58 824.55,212.78 824.55,212.78l252.63 -172.87 133 106.4 66.45 -265.98 -226.01 -398.98 226.01 -93.09 0 -212.76 146.31 -452.12 186.18 -39.93 132.94 -279.27 -106.32 -465.43 518.63 186.18 172.89 -66.49 79.78 53.2 305.87 66.51c0,0 -133,279.25 0,305.87 132.96,26.6 452.08,66.49 465.39,13.27 13.35,-53.2 66.55,-252.63 66.55,-252.63l106.34 26.58 79.82 -133.02c0,0 359.05,-79.78 398.94,-385.65 39.91,-305.83 26.62,-345.72 0,-412.25 -26.6,-66.45 -106.44,-132.96 -186.14,-212.74 -79.8,-79.82 -106.44,-181.77 -53.22,-190.58 53.22,-8.94 263.16,70.87 264.55,-48.78 1.43,-119.67 104.95,-186.24 0,-239.38 -104.95,-53.22 -131.63,-66.49 -171.46,-93.09 -39.87,-26.58 -159.58,-26.58 -186.2,-106.4 -26.58,-79.78 -93.09,-292.58 -93.09,-292.58l-186.14 26.6 -66.49 -252.63 359.07 -319.2 146.29 -837.8 -505.36 26.58 -279.29 -385.61 -26.6 -492.05 -172.87 -119.69 -119.71 132.96 -518.59 -39.87 -93.11 -398.94 0 -159.58 -239.36 -186.2 0 -293.79 -146.31 0 -13.27 -690.3 385.59 -66.51 252.71 119.71 239.42 -332.47 239.32 0 -79.78 -239.36 13.29 -159.58 -239.36 0 66.53 -332.47 505.3 0 13.31 -186.18 292.58 0 332.45 93.11 1170.23 79.78 0 93.09 199.49 0 119.65 -718.1 385.71 0 0 638.3 571.81 -146.29 279.27 -292.54 239.34 -97.8 332.47 -327.75 0 -79.86 199.49 -106.32 119.71 226.07 811.17 287.86 385.69 390.34c0,0 731.37,53.22 877.69,93.09 65.52,17.87 155.04,41.07 233.93,61.24l0 -8274.75 -10433.38 0c8.73,66.66 2.01,121.85 -53.7,128.05 -119.69,13.31 -345.74,-119.71 -265.94,79.78 79.74,199.47 146.25,412.25 93.09,478.74 -53.26,66.53 -199.49,292.58 -279.27,265.98 -79.8,-26.6 -172.89,26.6 -252.69,26.6 -79.78,0 -452.16,-39.91 -452.16,-39.91 0,0 -624.99,106.38 -744.7,66.49 -119.71,-39.89 -385.65,-93.09 -385.65,-93.09 0,0 -345.76,-119.65 -412.25,-26.58 -66.47,93.09 -186.18,252.67 -186.18,345.74l0 398.98c0,0 -398.96,26.56 -598.43,146.27 -199.45,119.69 -545.21,172.89 -545.21,172.89 0,0 -146.31,-53.2 -172.89,172.87 -26.6,226.07 26.58,492.03 -26.6,571.83 -53.2,79.78 -239.42,239.36 -226.11,292.54 13.35,53.22 305.93,159.62 305.93,159.62 0,0 -13.31,89.21 -106.4,184.23 -93.09,95 -159.56,68.4 -146.31,174.84 13.33,106.36 66.53,265.92 66.53,265.92 0,0 172.87,53.24 319.12,-39.85 146.31,-93.11 292.58,-186.2 345.78,-159.62 53.2,26.6 79.8,199.47 119.65,199.47 39.95,0 492.12,-93.07 492.12,-93.07 0,0 345.72,-26.58 425.5,-146.29 79.82,-119.65 146.23,-305.85 239.34,-305.85 93.09,0 332.49,-26.6 399,-39.91 66.47,-13.31 146.25,-106.4 186.16,79.78 39.89,186.2 0,252.69 39.89,359.09 39.95,106.4 26.58,186.16 79.8,319.14 53.18,132.98 119.69,199.49 79.8,226.07 -39.91,26.62 -265.98,-13.29 -398.96,-13.29 -132.96,0 -172.87,-26.62 -226.05,79.8 -53.22,106.38 -265.98,279.25 -372.38,305.83 -106.38,26.64 -319.18,106.42 -398.94,186.16 -79.78,79.8 -545.28,53.22 -664.92,79.8 -119.69,26.64 -265.96,133.02 -252.69,265.98 13.31,133.02 133,133.02 212.8,199.49 79.78,66.49 332.41,39.89 265.98,199.49 -66.49,159.58 -239.38,146.27 -292.6,132.98 -53.18,-13.31 -425.52,-13.31 -465.43,-119.67 -39.87,-106.4 -66.49,-172.91 -66.49,-172.91l-159.56 79.82c0,0 -199.51,66.45 -252.67,93.09 -53.26,26.58 -239.38,226.07 -305.85,226.07 -66.53,0 -452.16,0 -531.96,-66.55 -79.78,-66.45 -212.8,-93.07 -212.8,-93.07 0,0 252.69,784.62 372.34,904.33 119.71,119.71 292.62,265.98 292.62,265.98l26.58 -172.87c0,0 252.67,16.21 319.12,74.58 66.55,58.38 305.93,377.53 305.93,377.53 0,0 53.14,66.49 132.94,0 79.8,-66.47 -66.47,-146.27 79.8,-66.47 146.29,79.78 239.38,132.96 305.85,226.05 66.51,93.11 -26.6,319.16 -26.6,319.16 0,0 199.49,53.2 279.25,106.4 79.82,53.2 146.31,212.76 146.31,212.76 0,0 -106.36,106.42 -172.87,106.42 -66.51,0 -199.47,13.27 -265.96,-79.8 -66.53,-93.11 -305.85,-292.58 -359.05,-319.22 -53.2,-26.56 -93.09,-132.94 -146.29,-13.21 -53.22,119.65 -79.8,172.83 -79.8,292.54 0,119.69 0,398.96 -93.09,398.96 -93.09,0 -186.14,-26.64 -186.14,-79.8 0,-53.22 66.41,-133 66.41,-133 0,0 -239.32,-26.58 -345.74,79.78 -106.36,106.38 -119.65,119.71 -212.74,345.72 -93.11,226.09 -172.89,585.19 -172.89,585.19 0,0 -132.96,26.6 -172.91,119.69 -39.85,93.09 -359.05,106.36 -398.92,252.67 -39.89,146.27 13.31,851.09 -93.05,930.89 -106.44,79.78 -239.4,212.78 -279.29,239.38 -39.93,26.58 -319.14,146.27 -531.94,79.8l-212.82 -66.49c0,0 -571.77,-252.69 -718.1,-332.49 -146.25,-79.8 -372.34,-106.36 -385.61,-26.58l-13.31 79.78z"/>
 </g>
</svg>
