<?xml version="1.0" standalone="no"?>
<!DOCTYPE svg PUBLIC "-//W3C//DTD SVG 20010904//EN"
 "http://www.w3.org/TR/2001/REC-SVG-20010904/DTD/svg10.dtd">
<svg version="1.0" xmlns="http://www.w3.org/2000/svg"
 width="370.000000pt" height="370.000000pt" viewBox="0 0 370.000000 370.000000"
 preserveAspectRatio="xMidYMid meet">

<g transform="translate(0.000000,370.000000) scale(0.100000,-0.100000)"
fill="#000000" stroke="none">
<path d="M400 2950 l0 -350 350 0 350 0 0 350 0 350 -350 0 -350 0 0 -350z
m600 0 l0 -250 -250 0 -250 0 0 250 0 250 250 0 250 0 0 -250z"/>
<path d="M600 2950 l0 -150 150 0 150 0 0 150 0 150 -150 0 -150 0 0 -150z"/>
<path d="M1200 3150 l0 -150 100 0 100 0 0 -50 0 -50 -100 0 -100 0 0 -50 0
-50 100 0 100 0 0 -100 0 -100 -50 0 -50 0 0 50 0 50 -50 0 -50 0 0 -50 0 -50
50 0 50 0 0 -50 0 -50 -300 0 -300 0 0 -150 0 -150 -50 0 -50 0 0 50 0 50 -50
0 -50 0 0 -50 0 -50 50 0 50 0 0 -150 0 -150 -50 0 -50 0 0 50 0 50 -50 0 -50
0 0 -100 0 -100 150 0 150 0 0 50 0 50 50 0 50 0 0 50 0 50 150 0 150 0 0 -50
0 -50 -100 0 -100 0 0 -50 0 -50 -50 0 -50 0 0 -100 0 -100 -50 0 -50 0 0
-200 0 -200 100 0 100 0 0 50 0 50 50 0 50 0 0 -50 0 -50 100 0 100 0 0 -250
0 -250 50 0 50 0 0 -50 0 -50 50 0 50 0 0 -50 0 -50 50 0 50 0 0 50 0 50 50 0
50 0 0 50 0 50 100 0 100 0 0 50 0 50 50 0 50 0 0 50 0 50 50 0 50 0 0 50 0
50 -50 0 -50 0 0 100 0 100 100 0 100 0 0 -50 0 -50 100 0 100 0 0 -50 0 -50
50 0 50 0 0 -50 0 -50 -100 0 -100 0 0 50 0 50 -50 0 -50 0 0 -200 0 -200 -50
0 -50 0 0 50 0 50 -50 0 -50 0 0 -50 0 -50 -100 0 -100 0 0 -50 0 -50 -50 0
-50 0 0 -50 0 -50 50 0 50 0 0 50 0 50 100 0 100 0 0 -50 0 -50 50 0 50 0 0
50 0 50 50 0 50 0 0 -50 0 -50 50 0 50 0 0 50 0 50 50 0 50 0 0 -50 0 -50 100
0 100 0 0 50 0 50 -100 0 -100 0 0 50 0 50 50 0 50 0 0 50 0 50 50 0 50 0 0
-50 0 -50 50 0 50 0 0 100 0 100 200 0 200 0 0 50 0 50 -50 0 -50 0 0 50 0 50
50 0 50 0 0 100 0 100 100 0 100 0 0 50 0 50 -50 0 -50 0 0 50 0 50 -50 0 -50
0 0 50 0 50 100 0 100 0 0 -50 0 -50 50 0 50 0 0 50 0 50 -50 0 -50 0 0 50 0
50 -100 0 -100 0 0 50 0 50 50 0 50 0 0 100 0 100 50 0 50 0 0 -100 0 -100 50
0 50 0 0 250 0 250 -50 0 -50 0 0 -100 0 -100 -200 0 -200 0 0 50 0 50 -50 0
-50 0 0 50 0 50 -150 0 -150 0 0 -50 0 -50 -50 0 -50 0 0 -50 0 -50 -50 0 -50
0 0 -100 0 -100 50 0 50 0 0 -50 0 -50 100 0 100 0 0 50 0 50 -50 0 -50 0 0
50 0 50 -50 0 -50 0 0 50 0 50 50 0 50 0 0 50 0 50 100 0 100 0 0 -50 0 -50
-50 0 -50 0 0 -50 0 -50 50 0 50 0 0 -100 0 -100 50 0 50 0 0 -50 0 -50 50 0
50 0 0 -100 0 -100 -50 0 -50 0 0 50 0 50 -50 0 -50 0 0 50 0 50 -200 0 -200
0 0 -50 0 -50 -50 0 -50 0 0 100 0 100 -50 0 -50 0 0 50 0 50 50 0 50 0 0 150
0 150 50 0 50 0 0 50 0 50 50 0 50 0 0 50 0 50 100 0 100 0 0 50 0 50 50 0 50
0 0 50 0 50 -50 0 -50 0 0 -50 0 -50 -150 0 -150 0 0 50 0 50 -50 0 -50 0 0
150 0 150 50 0 50 0 0 -100 0 -100 50 0 50 0 0 100 0 100 50 0 50 0 0 -100 0
-100 50 0 50 0 0 100 0 100 -50 0 -50 0 0 50 0 50 -100 0 -100 0 0 50 0 50
-50 0 -50 0 0 50 0 50 50 0 50 0 0 50 0 50 50 0 50 0 0 -50 0 -50 50 0 50 0 0
50 0 50 -50 0 -50 0 0 50 0 50 -50 0 -50 0 0 -50 0 -50 -50 0 -50 0 0 50 0 50
-100 0 -100 0 0 -50 0 -50 50 0 50 0 0 -50 0 -50 -50 0 -50 0 0 -50 0 -50 50
0 50 0 0 -50 0 -50 -100 0 -100 0 0 -50 0 -50 50 0 50 0 0 -50 0 -50 -50 0
-50 0 0 -50 0 -50 -50 0 -50 0 0 50 0 50 -50 0 -50 0 0 50 0 50 50 0 50 0 0
50 0 50 -50 0 -50 0 0 200 0 200 -200 0 -200 0 0 -150z m300 0 l0 -50 -50 0
-50 0 0 50 0 50 50 0 50 0 0 -50z m0 -300 l0 -50 -50 0 -50 0 0 50 0 50 50 0
50 0 0 -50z m100 -350 l0 -200 50 0 50 0 0 -100 0 -100 -50 0 -50 0 0 100 0
100 -50 0 -50 0 0 -150 0 -150 100 0 100 0 0 -50 0 -50 -100 0 -100 0 0 -50 0
-50 -150 0 -150 0 0 -50 0 -50 50 0 50 0 0 -50 0 -50 50 0 50 0 0 -100 0 -100
-150 0 -150 0 0 -50 0 -50 -50 0 -50 0 0 50 0 50 -50 0 -50 0 0 200 0 200 100
0 100 0 0 50 0 50 100 0 100 0 0 50 0 50 -50 0 -50 0 0 100 0 100 -50 0 -50 0
0 -50 0 -50 -50 0 -50 0 0 50 0 50 50 0 50 0 0 50 0 50 -50 0 -50 0 0 50 0 50
50 0 50 0 0 -50 0 -50 50 0 50 0 0 -50 0 -50 50 0 50 0 0 -100 0 -100 50 0 50
0 0 150 0 150 -50 0 -50 0 0 100 0 100 50 0 50 0 0 -100 0 -100 50 0 50 0 0
200 0 200 50 0 50 0 0 -200z m400 150 l0 -50 -50 0 -50 0 0 -50 0 -50 100 0
100 0 0 -50 0 -50 -50 0 -50 0 0 -50 0 -50 -50 0 -50 0 0 -50 0 -50 50 0 50 0
0 -50 0 -50 -50 0 -50 0 0 -50 0 -50 50 0 50 0 0 -100 0 -100 -50 0 -50 0 0
-50 0 -50 50 0 50 0 0 -100 0 -100 50 0 50 0 0 -50 0 -50 50 0 50 0 0 50 0 50
50 0 50 0 0 -50 0 -50 150 0 150 0 0 -50 0 -50 -100 0 -100 0 0 -100 0 -100
-50 0 -50 0 0 150 0 150 -50 0 -50 0 0 -50 0 -50 -150 0 -150 0 0 50 0 50 -50
0 -50 0 0 -50 0 -50 -50 0 -50 0 0 -50 0 -50 50 0 50 0 0 -150 0 -150 -50 0
-50 0 0 -50 0 -50 -50 0 -50 0 0 -50 0 -50 -50 0 -50 0 0 50 0 50 -50 0 -50 0
0 -50 0 -50 -50 0 -50 0 0 200 0 200 50 0 50 0 0 -100 0 -100 100 0 100 0 0
50 0 50 -50 0 -50 0 0 100 0 100 -50 0 -50 0 0 50 0 50 50 0 50 0 0 -50 0 -50
50 0 50 0 0 100 0 100 -50 0 -50 0 0 50 0 50 200 0 200 0 0 100 0 100 -50 0
-50 0 0 -50 0 -50 -150 0 -150 0 0 50 0 50 50 0 50 0 0 50 0 50 100 0 100 0 0
50 0 50 50 0 50 0 0 50 0 50 -50 0 -50 0 0 300 0 300 50 0 50 0 0 50 0 50 50
0 50 0 0 -50z m-1100 -500 l0 -50 -50 0 -50 0 0 50 0 50 50 0 50 0 0 -50z
m2100 -350 l0 -100 -50 0 -50 0 0 -50 0 -50 50 0 50 0 0 -50 0 -50 -50 0 -50
0 0 50 0 50 -50 0 -50 0 0 150 0 150 100 0 100 0 0 -100z m-1700 -550 l0 -50
-50 0 -50 0 0 50 0 50 50 0 50 0 0 -50z m1500 -200 l0 -150 -150 0 -150 0 0
150 0 150 150 0 150 0 0 -150z m-400 -300 l0 -50 -50 0 -50 0 0 -50 0 -50 -50
0 -50 0 0 50 0 50 50 0 50 0 0 50 0 50 50 0 50 0 0 -50z m-400 -200 l0 -50
-50 0 -50 0 0 50 0 50 50 0 50 0 0 -50z"/>
<path d="M1400 1950 l0 -50 50 0 50 0 0 50 0 50 -50 0 -50 0 0 -50z"/>
<path d="M1000 1650 l0 -50 50 0 50 0 0 50 0 50 -50 0 -50 0 0 -50z"/>
<path d="M1200 1550 l0 -50 50 0 50 0 0 50 0 50 -50 0 -50 0 0 -50z"/>
<path d="M1000 1450 l0 -50 50 0 50 0 0 50 0 50 -50 0 -50 0 0 -50z"/>
<path d="M1900 1450 l0 -50 50 0 50 0 0 50 0 50 -50 0 -50 0 0 -50z"/>
<path d="M2600 1050 l0 -50 50 0 50 0 0 50 0 50 -50 0 -50 0 0 -50z"/>
<path d="M2600 2950 l0 -350 350 0 350 0 0 350 0 350 -350 0 -350 0 0 -350z
m600 0 l0 -250 -250 0 -250 0 0 250 0 250 250 0 250 0 0 -250z"/>
<path d="M2800 2950 l0 -150 150 0 150 0 0 150 0 150 -150 0 -150 0 0 -150z"/>
<path d="M400 2450 l0 -50 50 0 50 0 0 50 0 50 -50 0 -50 0 0 -50z"/>
<path d="M2800 2450 l0 -50 -50 0 -50 0 0 -50 0 -50 50 0 50 0 0 -50 0 -50 50
0 50 0 0 -50 0 -50 50 0 50 0 0 50 0 50 50 0 50 0 0 50 0 50 50 0 50 0 0 50 0
50 50 0 50 0 0 50 0 50 -150 0 -150 0 0 -150 0 -150 -50 0 -50 0 0 150 0 150
-50 0 -50 0 0 -50z"/>
<path d="M500 1650 l0 -50 50 0 50 0 0 50 0 50 -50 0 -50 0 0 -50z"/>
<path d="M400 750 l0 -350 350 0 350 0 0 350 0 350 -350 0 -350 0 0 -350z
m600 0 l0 -250 -250 0 -250 0 0 250 0 250 250 0 250 0 0 -250z"/>
<path d="M600 750 l0 -150 150 0 150 0 0 150 0 150 -150 0 -150 0 0 -150z"/>
<path d="M3200 950 l0 -50 50 0 50 0 0 50 0 50 -50 0 -50 0 0 -50z"/>
<path d="M3100 750 l0 -50 -50 0 -50 0 0 -50 0 -50 -50 0 -50 0 0 50 0 50
-100 0 -100 0 0 -50 0 -50 100 0 100 0 0 -50 0 -50 100 0 100 0 0 50 0 50 50
0 50 0 0 -50 0 -50 50 0 50 0 0 100 0 100 -50 0 -50 0 0 50 0 50 -50 0 -50 0
0 -50z"/>
<path d="M1200 450 l0 -50 50 0 50 0 0 50 0 50 -50 0 -50 0 0 -50z"/>
</g>
</svg>
