<?xml version="1.0" standalone="no"?>
<!DOCTYPE svg PUBLIC "-//W3C//DTD SVG 20010904//EN"
 "http://www.w3.org/TR/2001/REC-SVG-20010904/DTD/svg10.dtd">
<svg version="1.0" xmlns="http://www.w3.org/2000/svg"
 width="700.000000pt" height="700.000000pt" viewBox="0 0 700.000000 700.000000"
 preserveAspectRatio="xMidYMid meet">
<metadata>
Created by potrace 1.14, written by Peter Selinger 2001-2017
</metadata>
<g transform="translate(0.000000,700.000000) scale(0.100000,-0.100000)"
fill="#000000" stroke="none">
<path d="M3328 6445 c-2 -2 -33 -7 -68 -10 -55 -5 -212 -29 -325 -51 -16 -3
-70 -16 -120 -30 -49 -14 -97 -26 -105 -28 -150 -36 -466 -174 -664 -290 -286
-169 -566 -416 -750 -661 l-44 -60 126 -93 c111 -82 595 -431 655 -472 12 -8
76 -53 142 -101 66 -47 126 -89 132 -93 8 -4 44 19 95 64 251 218 498 355 754
421 152 38 194 43 379 44 228 0 365 -22 594 -98 112 -37 124 -39 135 -24 6 9
74 112 151 229 77 117 238 361 358 542 120 182 216 335 213 341 -4 11 -220
124 -312 162 -49 21 -276 100 -311 108 -78 20 -234 55 -258 59 -16 3 -39 7
-50 10 -11 2 -49 7 -85 11 -36 4 -74 10 -85 13 -23 6 -551 13 -557 7z"/>
<path d="M5325 5797 c-22 -34 -85 -132 -140 -218 -55 -85 -104 -163 -110 -172
-5 -9 -59 -92 -120 -184 -292 -448 -325 -500 -325 -510 0 -5 48 -57 105 -117
219 -228 355 -469 429 -761 63 -248 65 -516 6 -770 -126 -543 -554 -1010
-1091 -1188 -92 -31 -154 -46 -309 -73 -59 -10 -291 -12 -365 -3 -219 27 -391
77 -575 168 -395 196 -691 534 -829 946 -16 50 -33 106 -36 125 -3 19 -10 51
-15 70 -5 19 -12 60 -15 90 -4 30 -9 66 -11 80 -5 28 -5 236 0 290 14 148 47
299 97 438 37 102 30 191 -19 245 -9 11 -78 60 -152 110 -74 49 -158 107 -187
128 -44 33 -457 319 -503 349 -8 5 -54 37 -101 69 l-85 59 -41 -61 c-139 -211
-270 -553 -332 -867 -56 -285 -71 -671 -36 -945 11 -84 24 -173 30 -205 107
-532 305 -967 610 -1337 129 -156 369 -384 531 -504 33 -24 61 -47 64 -50 3
-3 61 -43 130 -89 113 -76 374 -216 490 -264 120 -49 320 -115 398 -131 9 -2
49 -10 87 -19 206 -45 356 -60 615 -60 186 0 334 9 465 29 22 4 54 9 70 11
141 21 369 74 468 110 748 267 1368 801 1725 1484 84 161 176 386 208 510 2 8
15 58 29 110 28 106 61 288 72 401 10 97 10 564 0 654 -12 111 -26 206 -42
285 -2 14 -6 36 -9 50 -18 105 -95 358 -154 500 -66 161 -177 369 -275 515
-43 63 -182 248 -207 276 -8 8 -45 49 -81 90 -105 117 -211 220 -364 354 -56
49 -57 49 -100 -18z"/>
</g>
</svg>
