<?xml version="1.0" standalone="no"?>
<!DOCTYPE svg PUBLIC "-//W3C//DTD SVG 20010904//EN"
 "http://www.w3.org/TR/2001/REC-SVG-20010904/DTD/svg10.dtd">
<svg version="1.0" xmlns="http://www.w3.org/2000/svg"
 width="1857.000000pt" height="1857.000000pt" viewBox="0 0 1857.000000 1857.000000"
 preserveAspectRatio="xMidYMid meet">
<metadata>
Created by potrace 1.14, written by Peter Selinger 2001-2017
</metadata>
<g transform="translate(0.000000,1857.000000) scale(0.100000,-0.100000)"
fill="#000000" stroke="none">
<path d="M15484 18561 c-5 -5 -103 -57 -219 -116 -115 -59 -257 -133 -315
-163 -58 -30 -157 -82 -220 -115 -63 -32 -176 -91 -250 -129 -74 -39 -184 -97
-245 -128 -60 -32 -191 -99 -290 -150 -99 -51 -211 -109 -250 -130 -38 -21
-137 -72 -220 -115 -82 -43 -206 -107 -275 -143 -69 -35 -186 -96 -260 -134
-74 -39 -184 -96 -245 -128 -60 -32 -177 -92 -260 -135 -224 -116 -387 -201
-510 -265 -60 -32 -177 -92 -260 -135 -82 -43 -190 -99 -240 -125 -49 -26
-171 -89 -270 -140 -99 -51 -211 -109 -250 -130 -38 -21 -146 -77 -240 -125
-93 -48 -206 -107 -250 -130 -44 -23 -174 -91 -290 -150 -115 -60 -262 -136
-325 -169 -64 -34 -150 -79 -193 -101 l-77 -40 0 -2080 c0 -1144 -1 -2537 -1
-3095 -1 -558 -1 -1019 0 -1023 1 -4 72 29 159 74 260 135 381 198 500 260 61
33 165 87 230 120 163 85 347 181 477 249 61 32 173 90 250 130 149 77 300
156 480 250 61 32 169 88 240 125 72 37 175 91 230 120 55 29 177 92 270 140
94 48 202 104 240 125 39 21 133 70 210 110 77 40 190 99 250 130 61 32 157
82 215 112 58 30 164 85 235 122 72 38 213 111 315 163 102 53 190 99 195 103
6 4 69 38 140 74 72 37 137 71 145 76 8 5 29 15 45 23 17 7 82 41 145 74 63
33 187 97 275 143 88 45 192 99 230 120 72 38 285 149 411 214 l70 36 1 313
c1 691 15 5031 16 5440 1 242 -1 443 -4 448 -3 5 -9 5 -15 0z"/>
<path d="M8847 15464 c-1 -1 -45 -5 -97 -9 -103 -7 -140 -10 -240 -21 -36 -3
-76 -8 -90 -9 -65 -6 -146 -16 -160 -20 -8 -2 -40 -6 -71 -10 -31 -3 -67 -8
-80 -10 -13 -3 -41 -7 -64 -10 -91 -13 -419 -79 -572 -116 -442 -106 -926
-271 -1348 -459 -153 -69 -515 -251 -582 -293 -24 -15 -43 -24 -43 -21 0 4 -8
0 -17 -8 -10 -8 -67 -43 -128 -78 -106 -62 -445 -282 -571 -371 -180 -128
-438 -335 -647 -518 -199 -175 -531 -513 -707 -721 -30 -36 -60 -71 -67 -78
-7 -7 -29 -34 -50 -60 -21 -26 -40 -49 -44 -52 -14 -13 -180 -232 -177 -234 2
-2 134 -72 293 -156 160 -84 322 -169 360 -190 39 -20 133 -70 210 -110 77
-40 145 -76 150 -80 6 -4 82 -44 170 -90 88 -45 165 -86 170 -90 6 -4 62 -33
125 -65 63 -33 123 -65 133 -73 9 -8 17 -12 17 -7 0 4 6 3 13 -3 14 -11 63
-38 252 -137 72 -37 162 -85 200 -105 39 -21 129 -68 200 -106 72 -37 174 -91
228 -120 54 -29 117 -63 140 -74 23 -12 69 -36 102 -54 33 -17 123 -65 200
-106 77 -40 167 -87 200 -105 33 -18 110 -58 170 -90 117 -61 229 -121 360
-190 44 -23 130 -68 190 -100 160 -84 272 -143 340 -180 33 -18 119 -63 190
-100 72 -37 157 -82 190 -100 33 -18 110 -58 170 -90 61 -32 142 -75 180 -95
39 -20 129 -68 200 -105 72 -37 153 -80 180 -95 59 -33 175 -94 340 -180 66
-34 139 -74 163 -87 24 -14 46 -22 50 -18 4 3 7 1401 7 3105 l0 3099 -68 -2
c-38 -1 -69 -3 -70 -3z"/>
<path d="M2682 11777 c-117 -171 -340 -596 -482 -919 -102 -231 -93 -208 -130
-308 -18 -47 -38 -98 -45 -115 -63 -147 -245 -753 -290 -965 -58 -276 -110
-563 -129 -720 -16 -127 -21 -174 -41 -385 -14 -150 -20 -325 -20 -630 0 -313
3 -404 20 -620 6 -76 25 -272 30 -305 4 -27 22 -161 30 -225 3 -22 8 -51 10
-65 3 -14 8 -45 11 -69 3 -25 7 -47 9 -51 2 -3 6 -26 10 -50 3 -25 10 -63 15
-85 5 -22 12 -56 15 -75 3 -19 10 -51 15 -70 5 -19 12 -51 15 -70 3 -19 22
-96 41 -170 19 -74 37 -144 39 -155 3 -11 21 -74 41 -140 19 -66 39 -133 43
-150 7 -24 55 -172 76 -232 2 -7 41 8 107 44 57 30 153 81 213 113 61 31 135
71 165 87 30 17 114 61 185 98 72 37 153 80 180 95 28 15 93 50 145 77 91 48
487 258 655 348 44 23 125 66 180 95 55 29 123 65 150 80 28 15 109 58 180 95
72 37 153 80 180 95 28 15 109 58 180 95 72 37 134 72 140 77 7 6 10 722 10
2103 l0 2095 -140 74 c-77 41 -144 75 -150 76 -5 1 -21 10 -35 20 -14 9 -88
50 -165 90 -77 40 -162 85 -190 100 -27 15 -99 53 -160 85 -60 32 -132 70
-160 85 -27 15 -99 53 -160 85 -60 32 -180 95 -265 140 -85 45 -200 106 -255
135 -55 29 -132 70 -172 91 l-72 39 -29 -43z"/>
<path d="M15820 11774 c-25 -14 -106 -57 -180 -96 -74 -39 -157 -83 -185 -98
-27 -15 -99 -53 -160 -85 -137 -72 -239 -126 -330 -175 -131 -70 -230 -123
-335 -178 -58 -30 -139 -73 -180 -95 -41 -22 -164 -87 -272 -144 l-198 -105 0
-81 c0 -112 0 -3819 0 -3982 l0 -130 93 -48 c50 -26 133 -69 182 -96 50 -26
149 -78 220 -116 72 -37 153 -80 180 -95 65 -36 174 -94 310 -165 61 -32 171
-90 245 -130 74 -39 185 -98 245 -130 61 -32 142 -74 180 -95 39 -20 115 -61
170 -90 55 -29 123 -65 150 -80 28 -15 104 -55 170 -90 66 -34 143 -75 170
-90 28 -15 107 -57 177 -94 l126 -66 16 45 c39 109 41 117 101 320 26 89 94
347 101 384 3 12 11 51 19 85 8 33 16 72 19 86 3 14 7 36 10 50 3 14 8 36 11
50 8 36 13 63 19 104 3 19 13 75 21 123 8 48 18 105 20 126 3 22 7 51 9 66 10
60 16 109 21 166 3 33 8 71 10 85 5 31 14 125 20 205 27 372 27 988 0 1240 -2
22 -7 69 -10 105 -8 92 -24 241 -29 270 -2 14 -7 49 -10 79 -4 30 -9 64 -11
75 -2 12 -7 39 -10 61 -10 65 -12 78 -19 115 -4 19 -11 60 -16 90 -18 100 -57
288 -72 345 -5 22 -12 48 -13 57 -22 114 -148 541 -215 728 -22 63 -42 120
-44 125 -2 6 -7 19 -11 30 -4 11 -21 54 -37 95 -16 41 -33 84 -37 95 -5 11
-32 74 -59 140 -116 277 -367 773 -453 897 -11 14 -19 28 -19 31 0 5 -62 108
-64 106 -1 0 -21 -12 -46 -25z"/>
<path d="M5292 8433 c3 -2016 3 -2027 23 -2038 29 -15 270 -143 340 -180 33
-18 114 -60 180 -95 147 -77 285 -150 385 -203 41 -21 199 -105 350 -184 151
-80 311 -165 355 -188 44 -23 130 -68 190 -100 61 -32 133 -70 160 -85 28 -15
113 -60 190 -100 77 -40 169 -88 205 -108 36 -19 103 -55 150 -80 47 -24 122
-64 168 -88 201 -107 254 -135 367 -194 66 -34 152 -79 190 -100 262 -140 435
-230 436 -228 4 10 3 4041 -1 4048 -3 4 -39 26 -80 48 -161 85 -591 312 -705
372 -66 34 -147 77 -180 95 -33 18 -107 57 -165 88 -102 53 -355 186 -550 290
-52 27 -133 70 -180 95 -47 24 -121 63 -165 87 -44 23 -134 70 -200 105 -66
35 -147 77 -180 95 -33 18 -103 55 -155 82 -201 107 -459 243 -545 288 -49 26
-128 68 -175 92 -47 25 -125 67 -175 93 -49 26 -120 64 -158 84 -37 20 -70 36
-72 36 -3 0 -4 -912 -3 -2027z"/>
<path d="M13230 10409 c-41 -22 -145 -77 -230 -121 -85 -44 -159 -84 -165 -88
-5 -4 -73 -40 -150 -80 -189 -98 -319 -166 -555 -292 -94 -51 -240 -128 -355
-188 -55 -29 -152 -80 -215 -113 -63 -33 -142 -74 -175 -92 -82 -44 -207 -110
-350 -185 -66 -35 -147 -77 -180 -95 -60 -33 -155 -83 -360 -190 -60 -32 -141
-74 -180 -95 -262 -140 -440 -234 -572 -302 l-103 -53 0 -2028 0 -2028 108 57
c59 31 145 77 192 102 47 24 112 59 145 77 33 18 114 60 180 95 66 34 156 82
200 105 44 23 123 65 175 93 52 27 124 65 160 84 36 19 128 68 205 108 77 40
154 80 170 90 17 9 89 48 160 85 72 37 200 105 285 150 85 45 198 105 250 132
52 28 133 70 180 95 47 25 135 71 195 103 61 32 137 72 170 90 33 18 114 61
180 95 120 62 202 106 368 194 48 26 140 75 205 109 64 34 126 67 137 74 19
11 19 40 20 2020 0 1104 -1 2014 -3 2021 -6 17 -8 16 -92 -29z"/>
<path d="M4750 5907 c-14 -7 -65 -35 -115 -62 -49 -26 -128 -68 -175 -93 -47
-24 -121 -64 -165 -87 -44 -24 -159 -84 -255 -135 -96 -51 -209 -111 -250
-133 -80 -43 -191 -101 -335 -177 -49 -26 -126 -67 -170 -90 -44 -24 -118 -63
-165 -88 -47 -24 -112 -59 -145 -77 -33 -18 -114 -61 -180 -95 -66 -34 -147
-77 -180 -95 -33 -18 -105 -56 -160 -85 -107 -56 -228 -121 -234 -126 -5 -4
190 -401 266 -538 244 -445 538 -875 853 -1251 65 -77 91 -108 145 -169 183
-208 449 -474 655 -656 47 -41 87 -77 90 -80 9 -9 175 -146 250 -207 151 -121
465 -346 620 -443 40 -25 307 -187 369 -223 94 -56 480 -253 606 -310 237
-107 558 -232 800 -310 170 -56 474 -143 565 -162 8 -2 56 -13 105 -24 123
-29 321 -68 430 -86 50 -8 99 -17 111 -19 12 -2 45 -7 75 -11 30 -4 68 -9 84
-12 17 -2 44 -6 60 -8 154 -18 239 -26 290 -30 33 -2 98 -8 145 -12 47 -4 292
-7 545 -7 412 0 561 5 690 19 22 2 65 7 95 10 121 11 171 17 300 36 74 10 153
22 175 25 172 24 676 138 885 200 177 53 551 178 605 203 11 5 40 17 65 26 25
9 56 22 70 28 14 6 27 11 30 12 12 4 179 75 255 108 83 36 486 237 545 272 30
18 93 54 140 81 118 68 111 64 189 112 118 72 365 237 498 334 108 78 428 329
443 347 3 3 37 33 75 66 452 386 916 900 1276 1415 150 214 382 585 432 690 4
8 19 35 33 60 59 102 264 519 264 536 0 3 -73 44 -190 106 -36 19 -76 40 -90
48 -14 7 -34 18 -45 23 -11 6 -83 44 -160 85 -77 41 -187 99 -245 129 -58 31
-127 68 -155 83 -27 15 -104 56 -170 90 -66 34 -133 70 -150 80 -16 9 -84 46
-150 80 -150 78 -270 141 -360 190 -105 56 -217 115 -345 182 -63 34 -128 68
-145 78 -16 10 -92 50 -168 89 l-138 72 -117 -62 c-64 -34 -169 -89 -232 -121
-63 -33 -146 -77 -185 -98 -38 -20 -122 -64 -185 -98 -63 -33 -164 -86 -225
-117 -60 -32 -157 -82 -215 -113 -58 -30 -145 -76 -195 -102 -49 -26 -148 -78
-220 -115 -71 -37 -157 -82 -190 -100 -89 -48 -250 -132 -420 -220 -82 -43
-172 -90 -200 -105 -27 -15 -106 -57 -175 -93 -316 -164 -369 -192 -650 -340
-52 -27 -131 -69 -175 -92 -44 -23 -132 -69 -195 -102 -266 -139 -332 -174
-465 -244 -77 -40 -194 -102 -260 -136 -66 -35 -144 -76 -173 -90 l-52 -27
-63 32 c-34 17 -116 60 -182 95 -66 34 -178 94 -250 131 -71 38 -170 90 -220
116 -49 26 -144 75 -210 110 -66 35 -151 80 -190 100 -38 21 -142 75 -230 120
-88 46 -182 95 -210 110 -27 15 -122 64 -210 110 -88 46 -173 91 -190 100 -16
10 -115 61 -220 115 -104 54 -194 101 -200 105 -5 4 -84 46 -175 92 -91 47
-194 101 -230 120 -36 20 -121 65 -190 100 -136 71 -269 141 -425 223 -198
104 -292 153 -420 220 -71 37 -161 85 -200 105 -38 21 -124 66 -190 100 -66
35 -166 87 -222 116 -57 30 -104 54 -105 54 -2 0 -14 -6 -28 -13z"/>
</g>
</svg>
