<?xml version="1.0" standalone="no"?>
<!DOCTYPE svg PUBLIC "-//W3C//DTD SVG 20010904//EN"
 "http://www.w3.org/TR/2001/REC-SVG-20010904/DTD/svg10.dtd">
<svg version="1.0" xmlns="http://www.w3.org/2000/svg"
 width="176.000000pt" height="176.000000pt" viewBox="0 0 176.000000 176.000000"
 preserveAspectRatio="xMidYMid meet">
<metadata>
Created by potrace 1.14, written by Peter Selinger 2001-2017
</metadata>
<g transform="translate(0.000000,176.000000) scale(0.100000,-0.100000)"
fill="#000000" stroke="none">
<path d="M700 1714 c-19 -7 -147 -54 -285 -104 -137 -50 -280 -102 -317 -116
l-68 -26 0 -573 0 -573 28 -10 c137 -49 564 -206 630 -233 13 -5 34 -9 47 -9
13 0 48 -8 77 -19 71 -25 116 -25 180 -1 29 11 67 20 85 20 17 0 43 4 57 10
18 7 35 5 60 -5 34 -15 40 -13 290 78 l256 92 0 406 0 405 -52 19 c-29 10 -58
22 -64 26 -6 5 -10 61 -9 149 1 77 -2 145 -5 150 -3 5 -179 73 -390 151 -533
196 -480 179 -520 163z m330 -265 c58 -21 143 -52 190 -69 47 -18 117 -43 157
-57 l71 -26 4 -42 c1 -23 1 -53 -2 -67 l-5 -25 -155 58 c-85 32 -162 58 -170
58 -13 1 -379 -129 -482 -170 l-28 -11 0 -405 c0 -382 -1 -405 -17 -398 -30
12 -172 65 -290 107 l-113 41 0 457 0 457 188 68 c103 38 225 83 272 100 l85
32 95 -35 c52 -19 142 -51 200 -73z m247 -364 c81 -30 154 -55 161 -55 8 0 12
-19 12 -62 1 -106 1 -388 0 -489 l0 -95 -37 -16 c-21 -8 -101 -38 -179 -66
l-140 -51 -175 64 -174 63 -3 314 -2 314 147 53 c82 30 162 60 178 67 46 19
54 18 212 -41z"/>
</g>
</svg>
