<?xml version="1.0" standalone="no"?>
<!DOCTYPE svg PUBLIC "-//W3C//DTD SVG 20010904//EN"
 "http://www.w3.org/TR/2001/REC-SVG-20010904/DTD/svg10.dtd">
<svg version="1.0" xmlns="http://www.w3.org/2000/svg"
 width="700.000000pt" height="700.000000pt" viewBox="0 0 700.000000 700.000000"
 preserveAspectRatio="xMidYMid meet">
<metadata>
Created by potrace 1.14, written by Peter Selinger 2001-2017
</metadata>
<g transform="translate(0.000000,700.000000) scale(0.100000,-0.100000)"
fill="#000000" stroke="none">
<path d="M0 3500 l0 -3500 3500 0 3500 0 0 3500 0 3500 -3500 0 -3500 0 0
-3500z m5010 3211 c4 -1 5 -2952 1 -3008 -1 -10 -150 -13 -709 -13 l-707 0 0
168 c0 193 -5 248 -41 392 -57 232 -128 415 -269 695 -268 532 -577 870 -1065
1163 -189 114 -443 236 -815 392 -124 52 -146 61 -215 92 -30 14 -98 42 -150
63 -52 21 -102 44 -111 50 -12 7 564 10 2030 9 1125 -1 2048 -2 2051 -3z
m1705 -1508 l1 -1513 -708 0 -708 0 -1 23 c-4 128 0 2987 4 2993 3 6 304 9
709 9 l703 0 0 -1512z m-5880 1167 c156 -36 481 -157 767 -286 311 -139 733
-419 930 -616 302 -302 613 -829 732 -1242 37 -126 37 -128 42 -267 8 -233
-20 -251 -274 -178 -298 85 -704 286 -1027 508 -284 195 -528 417 -706 641
-355 448 -729 1153 -729 1376 0 91 73 108 265 64z m-455 -475 c173 -379 257
-539 418 -800 81 -133 208 -321 265 -395 86 -112 285 -302 492 -469 148 -119
448 -320 640 -428 100 -57 376 -192 435 -213 30 -11 64 -24 75 -29 57 -24 89
-35 248 -80 252 -73 305 -99 334 -168 13 -33 19 -143 9 -190 -3 -12 -7 -46
-10 -75 -30 -271 -136 -616 -276 -896 -239 -479 -657 -956 -1117 -1275 -388
-269 -847 -467 -1233 -532 -19 -3 -91 -17 -160 -30 -69 -13 -140 -27 -158 -30
-19 -3 -39 -7 -45 -8 -9 -1 -12 715 -12 2905 -1 1599 2 2904 6 2900 3 -4 43
-88 89 -187z m4631 -2592 c3 -26 4 -2991 1 -3004 -3 -13 -49 -15 -420 -13
-229 2 -865 6 -1412 8 -954 6 -1101 8 -1235 21 -118 11 -168 35 -142 67 6 9
71 58 142 109 272 194 447 347 670 581 325 342 574 716 763 1148 82 189 165
487 192 690 6 47 13 96 15 110 2 14 6 48 9 75 6 53 15 117 21 150 2 11 4 30 4
43 l1 22 695 0 c382 0 695 -3 696 -7z m1704 -1505 l0 -1513 -703 0 c-422 -1
-706 3 -709 9 -4 6 -8 2963 -4 3009 1 4 320 7 709 7 l708 0 -1 -1512z"/>
</g>
</svg>
