<svg width="129" height="80" viewBox="0 0 129 80" fill="none" xmlns="http://www.w3.org/2000/svg">
<g clip-path="url(#clip0_8911_158257)">
<path d="M71.2797 36.6102C70.1563 36.6102 69.2458 37.5207 69.2458 38.6441V37.2881C69.2458 36.1647 68.3353 35.2542 67.2119 35.2542C66.0885 35.2542 65.178 36.1647 65.178 37.2881V35.9322V27.1186C65.178 25.9953 64.2675 25.0847 63.1441 25.0847C62.0207 25.0847 61.1102 25.9953 61.1102 27.1186V27.7966V36.6102V28.4746C61.1102 27.3512 60.1997 26.4407 59.0763 26.4407C57.9529 26.4407 57.0424 27.3512 57.0424 28.4746V42.7119V39.322C57.0424 37.9661 56.1319 37.2881 55.0085 37.2881C53.8851 37.2881 52.9746 38.1986 52.9746 39.322V44.7458C52.9746 50.362 57.5278 54.9153 63.1441 54.9153C68.7604 54.9153 73.3136 50.362 73.3136 44.7458V38.6441C73.3136 37.5207 72.4031 36.6102 71.2797 36.6102Z" stroke="currentColor" stroke-width="2.71186" stroke-miterlimit="10" stroke-linecap="round" stroke-linejoin="round"/>
</g>
<g clip-path="url(#clip1_8911_158257)">
<path d="M120.672 39L115.308 33.636L116.722 32.222L124.5 40L116.722 47.778L115.308 46.364L120.672 41H108.5V39H120.672Z" fill="currentColor"/>
</g>
<g clip-path="url(#clip2_8911_158257)">
<path d="M8.328 41L13.692 46.364L12.278 47.778L4.5 40L12.278 32.222L13.692 33.636L8.328 39L20.5 39L20.5 41L8.328 41Z" fill="currentColor"/>
</g>
<defs>
<clipPath id="clip0_8911_158257">
<rect width="33.8983" height="33.8983" fill="white" transform="translate(47.5508 23.0508)"/>
</clipPath>
<clipPath id="clip1_8911_158257">
<rect width="24" height="24" fill="white" transform="translate(104.5 28)"/>
</clipPath>
<clipPath id="clip2_8911_158257">
<rect width="24" height="24" fill="white" transform="translate(24.5 52) rotate(-180)"/>
</clipPath>
</defs>
</svg>
