<svg width="112" height="64" viewBox="0 0 112 64" fill="none" xmlns="http://www.w3.org/2000/svg">
<g clip-path="url(#clip0_8911_157455)">
<path d="M7.828 33L13.192 38.364L11.778 39.778L4 32L11.778 24.222L13.192 25.636L7.828 31L20 31L20 33L7.828 33Z" fill="currentColor"/>
</g>
<path d="M44.0008 32L38.6565 39.1256C37.1166 41.179 37.2575 44.0376 38.9917 45.9296L49.0821 56.9374C50.0923 58.0392 51.5162 58.6667 53.0112 58.6667C55.9077 58.6667 60.6448 58.6667 65.3341 58.6667C71.7341 58.6667 76.0008 53.3334 76.0008 48C76.0008 48 76.0008 29.7144 76.0008 25.1429" stroke="currentColor" stroke-width="1.5" stroke-linecap="round" stroke-linejoin="round"/>
<path d="M68 26.6665C68 26.6665 68 26.3329 68 25.1427C68 19.0475 76 19.0475 76 25.1427" stroke="currentColor" stroke-width="1.5" stroke-linecap="round" stroke-linejoin="round"/>
<path d="M60 26.6667C60 26.6667 60 24.4756 60 22.0952C60 16 68 16 68 22.0952C68 22.6903 68 24.5478 68 25.1428C68 26.333 68 26.6667 68 26.6667" stroke="currentColor" stroke-width="1.5" stroke-linecap="round" stroke-linejoin="round"/>
<path d="M52 26.6669C52 26.6669 52 22.9756 52 20.0001C52 13.9049 60 13.9049 60 20.0001C60 20.0001 60 21.5003 60 22.0954C60 24.4757 60 26.6669 60 26.6669" stroke="currentColor" stroke-width="1.5" stroke-linecap="round" stroke-linejoin="round"/>
<path d="M52 26.6667C52 26.6667 52 22.9755 52 20C52 16.9109 52 12.5059 52 9.33068C52 7.12153 50.2091 5.33337 48 5.33337C45.7909 5.33337 44 7.12423 44 9.33337V32V40" stroke="currentColor" stroke-width="1.5" stroke-linecap="round" stroke-linejoin="round"/>
<g clip-path="url(#clip1_8911_157455)">
<path d="M104.172 31L98.808 25.636L100.222 24.222L108 32L100.222 39.778L98.808 38.364L104.172 33H92V31H104.172Z" fill="currentColor"/>
</g>
<defs>
<clipPath id="clip0_8911_157455">
<rect width="24" height="24" fill="white" transform="translate(24 44) rotate(-180)"/>
</clipPath>
<clipPath id="clip1_8911_157455">
<rect width="24" height="24" fill="white" transform="translate(88 20)"/>
</clipPath>
</defs>
</svg>
